<?xml version="1.0" encoding="UTF-8" standalone="no"?>
<!-- Created with Inkscape (http://www.inkscape.org/) -->

<svg
   width="47.92194mm"
   height="125.64368mm"
   viewBox="0 0 47.92194 125.64368"
   version="1.1"
   id="svg1"
   xml:space="preserve"
   xmlns="http://www.w3.org/2000/svg"
   xmlns:svg="http://www.w3.org/2000/svg"><defs
     id="defs1" /><g
     id="layer1"
     transform="translate(-59.504026,-60.873073)"><g
       id="g1"><path
         style="display:inline;fill:#614630"
         d="m 82.093565,186.4177 c -0.305169,-0.0686 -0.960012,-0.46335 -1.455208,-0.87716 l -0.900355,-0.75239 v -4.80542 -4.80542 l -7.408334,0.0513 c -4.074583,0.0282 -7.76552,-0.0424 -8.202083,-0.15695 -0.987401,-0.2591 -2.778125,-1.63382 -2.778125,-2.13273 0,-0.2041 -0.416718,-0.54521 -0.926041,-0.75802 -1.091167,-0.45591 -1.140574,-0.82379 -0.517541,-3.8535 0.441223,-2.14561 0.814846,-2.64207 1.840769,-2.44595 0.975647,0.1865 0.790709,-0.20498 -0.653497,-1.38335 l -1.288308,-1.05117 -0.186799,-2.74059 c -0.229554,-3.36786 0.02633,-4.80487 0.937667,-5.26578 0.457879,-0.23157 2.100234,-0.33573 5.336233,-0.33843 l 4.674775,-0.004 0.572325,0.92604 c 0.631096,1.02113 1.058334,1.19443 1.058334,0.42927 0,-0.27322 0.184957,-0.65027 0.411015,-0.83788 0.420203,-0.34874 0.604009,-0.3665 4.782381,-0.46214 l 2.415271,-0.0553 -0.08421,-3.50573 c -0.04632,-1.92815 -0.16179,-4.27964 -0.256608,-5.22552 -0.27058,-2.69926 -0.215882,-3.46077 0.370588,-5.15938 0.607503,-1.75952 0.652897,-2.79212 0.953754,-21.69583 0.08801,-5.52979 0.211456,-10.47088 0.27433,-10.98021 0.07926,-0.64202 0.03885,-0.80499 -0.131751,-0.53138 -0.18635,0.29889 -0.320382,0.32035 -0.552288,0.0884 -0.231905,-0.23191 -0.209511,-0.4443 0.09228,-0.87516 0.352275,-0.50294 0.353243,-0.65966 0.0083,-1.35102 -0.405344,-0.81253 -0.288892,-2.50726 0.241606,-3.5161 0.182702,-0.34744 0.166398,-0.55524 -0.05426,-0.69162 -0.356272,-0.22018 -0.198282,-2.093692 0.43528,-5.161709 0.367896,-1.781531 1.13352,-5.944435 1.143535,-6.217708 0.0027,-0.07276 -1.929905,-0.16293 -4.294604,-0.200377 -2.364698,-0.03745 -5.013827,-0.137131 -5.886952,-0.221521 -2.329761,-0.225179 -5.009136,-1.5561 -6.482291,-3.219936 -2.886492,-3.26011 -3.193644,-4.02628 -3.366186,-8.396708 -0.101505,-2.571074 -0.01759,-3.696797 0.441172,-5.918228 1.008029,-4.881126 2.728709,-7.143286 6.746225,-8.869193 4.420169,-1.898885 8.882378,-2.561564 17.345455,-2.57596 6.275759,-0.01067 9.206935,0.493435 12.651327,2.175799 2.756444,1.346347 5.501214,3.846124 6.528464,5.945748 2.87543,5.87717 1.47132,14.395756 -3.04165,18.453303 -2.64962,2.382231 -5.124871,3.091656 -10.787098,3.091656 h -4.06278 l 0.176384,3.108854 c 0.09701,1.70987 0.271078,4.180417 0.386816,5.490104 0.115737,1.309686 0.120214,2.545286 0.0099,2.745776 -0.110267,0.20049 -0.08407,0.82319 0.05822,1.38376 0.274057,1.0797 0.06387,3.29864 -0.335865,3.54569 -0.130757,0.0808 -0.163176,0.34124 -0.07204,0.57873 0.09114,0.2375 0.05617,0.36477 -0.0777,0.28284 -0.14497,-0.0887 -0.251185,2.13525 -0.262652,5.49948 -0.01348,3.95479 0.06585,5.59756 0.264584,5.47873 0.165601,-0.099 0.154936,-0.0102 -0.0256,0.21326 -0.375907,0.46524 -0.41089,4.7408 -0.04248,5.1918 0.165832,0.20301 0.162718,0.48876 -0.0088,0.80928 -0.145841,0.27251 -0.228682,1.61957 -0.184092,2.99348 0.04459,1.3739 0.02585,2.59331 -0.04164,2.70979 -0.06749,0.11648 -0.106982,2.1668 -0.08775,4.55625 0.03217,3.99691 0.087,4.4621 0.685323,5.81503 0.759096,1.71645 0.808498,2.49886 0.228587,3.62028 -0.269901,0.52194 -0.362309,1.11264 -0.256638,1.64051 0.149368,0.74616 0.170225,1.26374 0.08875,2.20232 -0.01524,0.1755 -0.131305,0.25506 -0.257932,0.1768 -0.126627,-0.0783 -0.211648,0.2544 -0.188934,0.73924 0.02271,0.48485 -0.03731,3.79857 -0.133376,7.36383 -0.09607,3.56526 -0.213382,11.25258 -0.260694,17.08294 -0.05415,6.67339 -0.188094,10.79138 -0.361539,11.11546 -0.597582,1.11659 -1.317532,1.49185 -3.02373,1.57606 -0.916534,0.0452 -1.91611,0.0261 -2.221279,-0.0426 z m -5.44937,-12.14412 c -0.08146,-0.0815 -0.229407,0.0654 -0.328766,0.32632 -0.143585,0.37708 -0.113194,0.40747 0.148113,0.14811 0.180821,-0.17948 0.262115,-0.39297 0.180653,-0.47443 z m 3.490682,0.40387 c 0,-0.14552 -0.112036,-0.26458 -0.248969,-0.26458 -0.136932,0 -0.322553,0.11906 -0.41249,0.26458 -0.08994,0.14553 0.0221,0.26459 0.248969,0.26459 0.226869,0 0.41249,-0.11906 0.41249,-0.26459 z M 94.547976,85.663166 c 1.71245,-0.362706 3.605128,-0.912481 4.205952,-1.221723 3.245992,-1.670697 5.131792,-5.328426 4.844522,-9.396509 -0.21255,-3.009826 -1.3824,-4.988993 -3.619824,-6.124041 -0.800364,-0.406025 -1.514739,-0.806093 -1.5875,-0.889038 -0.07276,-0.08294 -0.97385,-0.418338 -2.002421,-0.745317 -1.672297,-0.531617 -2.250994,-0.580733 -5.4705,-0.464303 -1.980205,0.07161 -3.817553,0.242505 -4.082996,0.379762 -0.628427,0.32495 -2.46636,0.687477 -3.079474,0.607417 -0.2641,-0.03449 -1.079981,-0.363963 -1.813067,-0.732171 -3.71843,-1.867662 -10.56778,-0.562332 -13.915009,2.651883 -1.388502,1.333325 -2.05081,3.032552 -2.292065,5.880559 -0.331083,3.908409 0.925952,6.052006 4.642874,7.9174 4.245775,2.130806 8.964453,2.948663 16.46455,2.853688 3.725827,-0.04718 5.178388,-0.182466 7.704958,-0.717607 z M 70.87446,84.719123 c 0,-0.145521 -0.0525,-0.264583 -0.116677,-0.264583 -0.06417,0 -0.190261,0.119062 -0.280198,0.264583 -0.08994,0.145521 -0.03743,0.264583 0.116677,0.264583 0.154109,0 0.280198,-0.119062 0.280198,-0.264583 z m 1.426836,-19.355242 c 0.420958,-0.225823 0.654265,-0.479259 0.51846,-0.563191 -0.287612,-0.177754 -1.945296,0.570493 -1.945296,0.878069 0,0.286784 0.518626,0.172333 1.426836,-0.314878 z"
         id="path3" /><path
         style="display:inline;fill:#4c3527"
         d="m 81.559868,185.96526 c -1.027677,-0.49126 -1.425413,-0.85418 -1.653646,-1.50889 -0.341165,-0.97866 -0.370486,-6.26566 -0.0469,-8.456 0.208543,-1.4116 -0.04195,-2.4052 -0.356906,-1.41569 -0.127836,0.40162 -0.45363,0.49675 -1.812221,0.52917 -0.911001,0.0217 -1.507537,-0.018 -1.325636,-0.0882 0.181901,-0.0702 0.330729,-0.29264 0.330729,-0.49423 0,-0.2171 -0.161801,-0.30443 -0.396875,-0.21423 -0.218281,0.0838 -0.396875,0.3073 -0.396875,0.49674 0,0.2699 -1.029405,0.34555 -4.757014,0.34956 -2.616357,0.003 -4.887951,0.086 -5.047985,0.18495 -0.871386,0.53855 -4.305141,-1.2915 -4.801775,-2.55914 -0.102841,-0.26249 -0.489794,-0.55326 -0.859896,-0.64615 -0.370102,-0.0929 -0.682703,-0.24528 -0.694669,-0.33865 -0.01197,-0.0934 -0.07703,-0.50807 -0.144587,-0.92158 -0.06756,-0.4135 7.32e-4,-0.90071 0.151753,-1.08268 0.15102,-0.18196 0.199118,-0.40631 0.106883,-0.49855 -0.09223,-0.0922 -0.04232,-0.3194 0.110911,-0.50482 0.153235,-0.18542 0.36125,-0.77937 0.462255,-1.31988 0.101005,-0.54052 0.320019,-1.0954 0.486698,-1.23307 0.166678,-0.13767 1.136489,-0.36482 2.155135,-0.50478 l 1.852083,-0.25447 -1.497834,-0.0338 c -1.294987,-0.0292 -1.582419,-0.13434 -2.122408,-0.77608 -0.343515,-0.40825 -0.813281,-0.81468 -1.043925,-0.90319 -0.322806,-0.12387 -0.462235,-0.74512 -0.605617,-2.69843 -0.244513,-3.33102 -0.01798,-4.82021 0.816396,-5.36692 0.790923,-0.51823 8.915232,-0.82984 9.209786,-0.35324 0.09623,0.1557 0.290958,0.21139 0.432736,0.12377 0.141778,-0.0876 0.609927,0.23786 1.040329,0.72329 0.652882,0.73635 0.825676,0.81684 1.042805,0.48573 0.14314,-0.21828 0.262077,-0.5457 0.264306,-0.72761 0.0022,-0.1819 0.123114,-0.33072 0.268634,-0.33072 0.145521,0 0.264584,0.11103 0.264584,0.24675 0,0.13571 0.23026,0.31983 0.511688,0.40916 0.453354,0.14389 0.498817,0.35951 0.398781,1.89132 -0.118999,1.82218 0.211859,2.17402 0.850335,0.90428 0.168078,-0.33426 0.680023,-0.78909 1.137656,-1.01073 0.495693,-0.24007 0.777472,-0.54523 0.697028,-0.75487 -0.182231,-0.47488 0.423801,-1.81167 0.836282,-1.84466 0.181901,-0.0146 0.80698,-0.0443 1.389063,-0.0661 l 1.058333,-0.0397 v -3.4001 c 0,-1.87006 -0.131577,-3.77754 -0.292393,-4.23886 -0.192618,-0.55255 -0.203776,-0.94973 -0.0327,-1.16396 0.146717,-0.18373 0.166906,-0.55541 0.04641,-0.85437 -0.398418,-0.98847 -0.255383,-3.01094 0.312735,-4.42198 0.621904,-1.54462 0.57811,-0.54698 0.88025,-20.05198 0.08679,-5.60255 0.217544,-10.9306 0.290573,-11.8401 0.08797,-1.0956 0.03574,-1.65365 -0.154786,-1.65365 -0.158162,0 -0.213982,0.11907 -0.124045,0.26459 0.08994,0.14552 0.04446,0.26458 -0.101062,0.26458 -0.505719,0 -0.60972,-0.56529 -0.18944,-1.02969 0.490689,-0.54221 0.545342,-1.00203 0.135342,-1.1387 -0.490428,-0.16347 -0.340521,-3.115 0.202864,-3.99421 0.08381,-0.13561 0.01368,-0.33229 -0.155856,-0.43706 -0.378775,-0.2341 -0.143837,-2.218912 0.917047,-7.747428 0.411193,-2.142826 0.691721,-3.95195 0.623395,-4.020276 -0.06833,-0.06833 -0.537606,-0.03779 -1.042843,0.06786 -0.834927,0.174587 -9.103961,-0.06475 -10.046739,-0.29079 -2.243873,-0.537993 -4.003998,-1.507192 -5.476863,-3.015792 -0.771267,-0.789979 -1.402303,-1.560366 -1.402303,-1.71197 0,-0.151604 -0.349846,-0.771358 -0.777436,-1.377231 -1.40369,-1.988958 -1.706425,-5.889895 -0.83495,-10.758878 0.811648,-4.534726 2.015785,-6.574587 4.909665,-8.31719 1.720619,-1.036103 5.037405,-2.388077 6.492304,-2.646365 3.071755,-0.545329 7.252028,-0.809102 12.832291,-0.809711 5.833868,-6.36e-4 6.536759,0.04976 8.647697,0.61996 3.220455,0.869906 6.094605,2.440038 8.031205,4.387402 2.65075,2.665489 3.69674,5.515513 3.78545,10.314283 0.0418,2.263655 -0.0511,2.851911 -0.79003,4.998703 -2.30342,6.692374 -6.06306,9.124341 -14.118072,9.132422 -4.867932,0.0049 -4.684136,-0.01582 -4.532453,0.5106 0.07338,0.254661 0.212056,1.891771 0.308174,3.638021 0.273392,4.966938 0.326899,5.60894 0.517521,6.20954 0.09823,0.3095 0.04817,0.71989 -0.111245,0.91197 -0.210197,0.25327 -0.208658,0.70421 0.0056,1.64095 0.413336,1.80713 0.03929,3.17176 -0.841631,3.07047 l -0.63763,-0.0733 0.595312,0.41905 c 0.542202,0.38166 0.888161,1.13042 0.376071,0.81393 -0.197227,-0.12189 -0.323725,7.15734 -0.411727,23.69261 -0.01677,3.15092 -0.119786,5.67398 -0.228927,5.60678 -0.249184,-0.15343 -0.262251,0.28621 -0.01583,0.53263 0.100434,0.10043 0.228768,0.73336 0.285187,1.40651 0.05642,0.67315 0.271902,1.39324 0.478852,1.60018 0.206949,0.20695 0.391154,0.6059 0.409344,0.88654 0.05463,0.84292 0.09045,0.98657 0.297656,1.19378 0.315014,0.31501 0.218494,0.9559 -0.313343,2.08059 -0.357808,0.75666 -0.428212,1.21688 -0.255606,1.67087 0.321984,0.84688 0.301301,1.91503 -0.03708,1.91503 -0.151415,0 -0.260136,0.44649 -0.241601,0.99219 0.01853,0.5457 -0.03626,2.30187 -0.121758,3.9026 -0.0855,1.60073 -0.229608,7.91105 -0.320236,14.02292 -0.152118,10.25884 -0.259372,15.79632 -0.334119,17.25043 -0.09846,1.9155 -3.239153,2.77762 -5.748659,1.578 z m 3.549993,-1.8871 c 0.222771,-0.22277 -0.08772,-0.41729 -0.901665,-0.56489 -0.414759,-0.0752 -0.800729,-0.18336 -0.857711,-0.24035 -0.123137,-0.12313 -0.834358,0.55365 -0.834358,0.79396 0,0.0917 0.110835,0.0983 0.246301,0.0146 0.135465,-0.0837 0.315606,-0.0401 0.400313,0.097 0.15284,0.2473 1.678094,0.16875 1.94712,-0.10028 z m -0.598212,-2.53958 c 0.09607,-0.15544 0.370986,-0.20791 0.610928,-0.11661 0.34967,0.13305 0.370615,0.0999 0.105529,-0.16717 -0.181901,-0.18325 -0.33073,-0.54749 -0.33073,-0.80943 0,-0.26194 -0.167447,-0.47625 -0.372104,-0.47625 -0.241843,0 -0.323663,-0.18524 -0.233725,-0.52917 0.172957,-0.66138 -0.05695,-0.6718 -0.741966,-0.0336 -0.456375,0.42517 -0.473592,0.51794 -0.121228,0.65315 0.22588,0.0867 0.41069,0.39946 0.41069,0.69507 0,0.29561 0.148828,0.53929 0.330729,0.54152 0.220486,0.003 0.198438,0.0895 -0.06615,0.26053 -0.238466,0.15411 -0.2711,0.2581 -0.08176,0.26053 0.173313,0.002 0.393715,-0.12312 0.489783,-0.27857 z m -0.408023,-1.04029 c 0,-0.14552 0.12609,-0.26459 0.280199,-0.26459 0.154109,0 0.206613,0.11907 0.116676,0.26459 -0.08994,0.14552 -0.216026,0.26458 -0.280198,0.26458 -0.06417,0 -0.116677,-0.11906 -0.116677,-0.26458 z m -1.02224,-2.76925 c -0.109022,-0.1504 -0.186088,-0.59286 -0.171259,-0.98324 0.01483,-0.39038 -0.05252,-0.66066 -0.149673,-0.60062 -0.14674,0.0907 -0.146551,0.97165 5.08e-4,2.36873 0.01532,0.14552 0.138279,0.09 0.273248,-0.12341 0.134968,-0.21341 0.156197,-0.51106 0.04718,-0.66146 z m 0.970164,-3.58075 c -0.07182,-0.94251 -0.741674,-1.0819 -0.741674,-0.15434 0,0.53394 0.181398,0.76377 0.731807,0.9272 0.03869,0.0115 0.04313,-0.3363 0.0099,-0.77286 z m -11.854173,-0.24897 c 0,-0.13693 -0.119063,-0.32255 -0.264584,-0.41249 -0.14552,-0.0899 -0.264583,0.0221 -0.264583,0.24897 0,0.22687 0.119063,0.41249 0.264583,0.41249 0.145521,0 0.264584,-0.11204 0.264584,-0.24897 z m 11.627742,-2.52916 c 0.03313,-2.78963 0.02031,-2.93062 -0.228632,-2.51354 -0.280886,0.47061 -0.262664,4.31594 0.01911,4.03186 0.106597,-0.10747 0.200884,-0.79071 0.209526,-1.51832 z m -17.641977,-0.0412 c -0.179132,-0.0725 -0.536319,-0.0769 -0.79375,-0.01 -0.257431,0.0671 -0.110869,0.12638 0.325693,0.13177 0.436563,0.005 0.647188,-0.0495 0.468057,-0.12196 z m 8.687696,-0.87974 c 0.98288,0.17974 2.145255,-0.30472 1.575705,-0.65672 -0.154229,-0.0953 -0.280416,-0.0637 -0.280416,0.0701 0,0.28149 -2.392207,0.24033 -2.86071,-0.0492 -0.393935,-0.24346 -0.843457,0.0183 -0.843457,0.49118 0,0.26161 0.196165,0.30592 0.726466,0.16409 0.399557,-0.10685 1.156642,-0.11562 1.682412,-0.0195 z m -12.808473,-0.36785 c -0.04505,-0.24047 0.513628,-0.34902 2.263658,-0.43981 0.254661,-0.0132 0.463021,-0.1872 0.463021,-0.38663 0,-0.38729 -0.770489,-0.73009 -1.361663,-0.60583 -0.232832,0.0489 -0.367727,-0.19791 -0.385562,-0.70557 -0.01509,-0.42946 -0.164658,-0.82658 -0.332377,-0.88249 -0.16772,-0.0559 -0.237646,-0.21054 -0.15539,-0.34363 0.08226,-0.13309 0.03804,-0.24199 -0.09825,-0.24199 -0.266836,0 -0.741466,0.49641 -0.885408,0.92604 -0.04875,0.14552 -0.177942,0.23482 -0.287083,0.19844 -0.291331,-0.0971 -0.242173,0.40476 0.05781,0.59016 0.140933,0.0871 0.217947,0.61006 0.17114,1.16214 -0.0585,0.69 0.02222,1.00378 0.258225,1.00378 0.18883,0 0.320176,-0.12358 0.29188,-0.27461 z m 0.230148,-1.56684 c 0.09936,-0.26094 0.247304,-0.40778 0.328765,-0.32632 0.08146,0.0815 1.68e-4,0.29496 -0.180653,0.47443 -0.261307,0.25937 -0.291697,0.22898 -0.148112,-0.14811 z m 3.290281,0.5755 c 0,-0.14553 -0.119063,-0.191 -0.264584,-0.10107 -0.145521,0.0899 -0.264583,0.28259 -0.264583,0.42811 0,0.14552 0.119062,0.191 0.264583,0.10106 0.145521,-0.0899 0.264584,-0.28258 0.264584,-0.4281 z m 1.727885,-1.11896 c 0.352631,-0.50345 0.388781,-0.50981 0.388781,-0.0685 0,0.37551 0.135915,0.45018 0.595313,0.32706 0.327422,-0.0877 0.922734,-0.16116 1.322916,-0.16315 0.516755,-0.003 0.72643,-0.13779 0.723553,-0.46663 -0.0024,-0.26954 -0.08528,-0.34876 -0.198438,-0.18958 -0.106912,0.15039 -0.343214,0.25457 -0.525115,0.23151 -0.181901,-0.0231 -0.456818,-0.0568 -0.610927,-0.075 -0.154109,-0.0182 -0.223247,-0.12522 -0.15364,-0.23785 0.153083,-0.24769 -4.25841,-0.21825 -4.50674,0.0301 -0.248143,0.24814 0.02833,0.46089 0.660879,0.50853 0.298438,0.0225 0.596391,0.24652 0.662118,0.49786 0.155614,0.59507 1.108665,0.36607 1.6413,-0.39438 z m 4.622114,-0.10015 c 0,-0.23395 -0.07834,-0.34702 -0.174093,-0.25127 -0.09575,0.0958 -0.323276,0.0503 -0.505611,-0.10104 -0.232681,-0.19311 -0.390033,-0.18046 -0.527787,0.0424 -0.112584,0.18216 0.0068,0.46606 0.280007,0.66583 0.549231,0.4016 0.927484,0.25643 0.927484,-0.35596 z m 1.058334,-0.33716 c 0,-0.14553 -0.05251,-0.26459 -0.116677,-0.26459 -0.06417,0 -0.190261,0.11906 -0.280198,0.26459 -0.08994,0.14552 -0.03743,0.26458 0.116676,0.26458 0.15411,0 0.280199,-0.11906 0.280199,-0.26458 z m 1.058333,-0.26459 c 0,-0.14552 -0.208359,-0.26276 -0.463021,-0.26053 -0.395697,0.003 -0.405314,0.0413 -0.06615,0.26053 0.499325,0.32269 0.529167,0.32269 0.529167,0 z m 9.970324,-0.57877 c -0.08446,-0.21107 -0.147157,-0.14838 -0.159853,0.15985 -0.01149,0.27891 0.05105,0.43518 0.138965,0.34726 0.08792,-0.0879 0.09732,-0.31612 0.02089,-0.50711 z m -16.452615,-1.02391 c -1.471878,-0.30444 -2.513542,-0.29815 -2.513542,0.0152 0,0.15326 0.751417,0.25178 1.785937,0.23416 1.65397,-0.0282 1.707735,-0.0466 0.727605,-0.24934 z m 8.598975,0.0813 c 1.7e-5,-0.18789 -6.300593,-0.14727 -7.143767,0.0461 -0.218281,0.05 1.299765,0.10481 3.373437,0.12169 2.073672,0.0169 3.770321,-0.0586 3.77033,-0.16774 z m 1.99195,-0.21269 c -0.286867,-0.21687 -0.683558,-0.33214 -0.881536,-0.25617 -0.197978,0.076 -0.499051,0.15222 -0.66905,0.16943 -0.350284,0.0355 1.066989,0.42306 1.675285,0.45815 0.288903,0.0167 0.254978,-0.0844 -0.124699,-0.37141 z m -7.297788,-3.84866 c -0.269752,-0.50403 -0.801715,-0.65699 -1.132951,-0.32575 -0.278673,0.27867 0.626099,1.12621 1.034827,0.96937 0.273648,-0.10501 0.298641,-0.26895 0.09812,-0.64362 z m 7.603228,-1.34607 c -0.08446,-0.21107 -0.147157,-0.14838 -0.159853,0.15985 -0.01149,0.27891 0.05105,0.43518 0.138965,0.34726 0.08792,-0.0879 0.09732,-0.31612 0.02089,-0.50711 z m -11.028657,-0.59624 c 0,-0.0642 -0.119063,-0.19026 -0.264583,-0.2802 -0.145521,-0.0899 -0.264584,-0.0374 -0.264584,0.11668 0,0.15411 0.119063,0.2802 0.264584,0.2802 0.14552,0 0.264583,-0.0525 0.264583,-0.11668 z m -4.677067,-0.83607 c -0.0894,-0.23296 0.0036,-0.5288 0.206742,-0.6574 0.249562,-0.15803 0.26508,-0.23515 0.04786,-0.23788 -0.380769,-0.005 -0.924256,0.91103 -0.683507,1.15178 0.322539,0.32254 0.589773,0.16273 0.428902,-0.2565 z m 20.81665,0.1673 c 0,-0.14095 -0.178594,-0.18774 -0.396875,-0.10398 -0.218281,0.0838 -0.396875,0.19909 -0.396875,0.25628 0,0.0572 0.178594,0.10398 0.396875,0.10398 0.218281,0 0.396875,-0.11532 0.396875,-0.25628 z m -6.181801,-0.93623 c -0.447688,-0.44769 -0.556501,-0.23151 -0.265359,0.5272 0.111942,0.29171 0.25536,0.34836 0.432783,0.17094 0.177423,-0.17742 0.121942,-0.40878 -0.167424,-0.69814 z m -9.164032,0.54667 c 0,-0.0642 -0.119063,-0.19026 -0.264583,-0.2802 -0.145521,-0.0899 -0.264584,-0.0374 -0.264584,0.11668 0,0.15411 0.119063,0.2802 0.264584,0.2802 0.14552,0 0.264583,-0.0525 0.264583,-0.11668 z m -6.292674,-0.99017 c -0.404154,-0.40415 -0.702373,-0.10593 -0.478214,0.47822 0.132353,0.3449 0.247099,0.37908 0.482478,0.1437 0.23538,-0.23538 0.234366,-0.38329 -0.0043,-0.62192 z m 17.14059,0.57768 c 0,-0.14552 -0.119062,-0.26458 -0.264583,-0.26458 -0.145521,0 -0.264583,0.11906 -0.264583,0.26458 0,0.14552 0.119062,0.26458 0.264583,0.26458 0.145521,0 0.264583,-0.11906 0.264583,-0.26458 z m -13.660751,-0.70556 c -0.08522,-0.33955 -0.05274,-0.62647 0.07217,-0.6376 0.124916,-0.0111 0.465245,-0.0776 0.756287,-0.1478 0.291042,-0.0702 0.661659,-0.14042 0.823594,-0.15614 0.161935,-0.0157 0.235988,-0.25207 0.164562,-0.5252 -0.108093,-0.41335 -0.357053,-0.488 -1.485052,-0.44529 -1.549504,0.0587 -2.070653,0.24995 -1.360091,0.4992 0.706237,0.24774 0.768828,1.03731 0.0677,0.85396 -0.350206,-0.0916 -0.479345,-0.0398 -0.364432,0.14613 0.09789,0.15839 0.05503,0.36397 -0.09523,0.45684 -0.459244,0.28383 -0.06741,0.57326 0.776084,0.57326 0.705309,0 0.781131,-0.0726 0.644414,-0.61736 z m 17.916683,0.0581 c 0.133091,0.0822 0.241985,0.0235 0.241985,-0.13065 0,-0.15411 -0.178594,-0.28019 -0.396875,-0.28019 -0.218281,0 -0.387475,0.20835 -0.375987,0.46302 0.0126,0.27933 0.07405,0.33116 0.15489,0.13064 0.0737,-0.18281 0.242895,-0.26508 0.375987,-0.18282 z M 67.615617,157.1654 c -0.08446,-0.21107 -0.147156,-0.14838 -0.159852,0.15985 -0.01149,0.27891 0.05105,0.43518 0.138964,0.34726 0.08792,-0.0879 0.09732,-0.31612 0.02089,-0.50711 z m 18.47567,-3.10833 c -0.05424,-0.28166 0.06988,-0.65195 0.275833,-0.82288 0.274345,-0.22768 0.345603,-0.76068 0.266536,-1.99364 -0.135189,-2.10813 -0.286985,-2.36598 -1.001162,-1.70062 -0.455974,0.4248 -0.509143,0.63302 -0.286456,1.12178 0.150392,0.3301 0.187226,0.8383 0.08185,1.12934 -0.105374,0.29104 -0.141807,0.76729 -0.08096,1.05833 0.06084,0.29104 0.121657,0.70776 0.13514,0.92604 0.01348,0.21828 0.155334,0.48435 0.315225,0.59126 0.40197,0.26878 0.404809,0.26579 0.293995,-0.30961 z m 1.808701,-6.83684 c -0.09056,-0.34631 -0.414356,-0.48078 -1.232001,-0.51164 l -1.109152,-0.0419 1.058333,0.50266 c 1.321666,0.62774 1.434853,0.63223 1.28282,0.0508 z m -4.325528,-0.75169 c 0,-0.0558 -0.297656,-0.10145 -0.661459,-0.10145 -0.363802,0 -0.661458,0.10255 -0.661458,0.22789 0,0.12534 0.297656,0.17099 0.661458,0.10145 0.363803,-0.0695 0.661459,-0.1721 0.661459,-0.22789 z m -2.292704,-2.92403 c 0.09721,-0.0972 0.682598,-0.1865 1.300868,-0.19843 0.972507,-0.0188 1.13605,-0.10596 1.212524,-0.64638 0.05413,-0.38251 -0.01832,-0.55872 -0.186882,-0.45455 -0.151404,0.0936 -0.212724,0.37468 -0.136268,0.62468 0.07646,0.25 -0.03188,0.16864 -0.240738,-0.18082 -0.275278,-0.46057 -0.416373,-0.53336 -0.512873,-0.26458 -0.10909,0.30385 -0.234246,0.31108 -0.693268,0.04 -0.732467,-0.43247 -0.921817,-0.41749 -0.739167,0.0585 0.08215,0.21407 -0.03268,0.57126 -0.255175,0.79375 -0.222492,0.2225 -0.296808,0.40454 -0.165146,0.40454 0.131661,0 0.318918,-0.0795 0.416125,-0.17675 z m 5.335412,-0.617 c 0,-0.21829 -0.157678,-0.36416 -0.350396,-0.32418 -0.192717,0.04 -0.280072,-0.0411 -0.194121,-0.18015 0.08595,-0.13907 0.03527,-0.32765 -0.112625,-0.41905 -0.147895,-0.0914 -0.270723,-0.0103 -0.272951,0.18016 -0.0026,0.22626 -0.07144,0.24897 -0.198438,0.0655 -0.106912,-0.15446 -0.447393,-0.27777 -0.756625,-0.27403 -0.409281,0.005 -0.56224,0.17333 -0.56224,0.6189 0,0.46786 0.111653,0.57666 0.473828,0.46171 0.260604,-0.0827 0.554613,-0.0197 0.653351,0.14009 0.25842,0.41813 1.320217,0.20182 1.320217,-0.26895 z m -0.800602,-11.70782 c -0.219867,-1.04346 -0.524958,-1.41601 -0.797915,-0.97436 -0.13088,0.21177 -0.09448,0.26143 0.102428,0.13973 0.209041,-0.12919 0.305464,0.10846 0.305464,0.75287 0,0.51791 0.128523,0.94166 0.285606,0.94166 0.183,0 0.220513,-0.30892 0.104417,-0.8599 z m -3.035856,-1.12448 c 0,-0.21828 -0.115326,-0.39687 -0.25628,-0.39687 -0.140953,0 -0.187746,0.17859 -0.103984,0.39687 0.08376,0.21829 0.199088,0.39688 0.25628,0.39688 0.05719,0 0.103984,-0.17859 0.103984,-0.39688 z m 3.145154,-1.26755 c -0.0384,-0.6244 0.02558,-1.28962 0.142171,-1.47826 0.121867,-0.19719 0.07031,-0.4738 -0.121278,-0.65068 -0.253461,-0.234 -0.291707,-0.23359 -0.159723,0.002 0.09545,0.17016 -0.01465,0.49759 -0.244666,0.7276 -0.230013,0.23001 -0.290639,0.41821 -0.134724,0.41821 0.155915,0 0.283482,0.18278 0.283482,0.40618 0,0.32722 -0.105221,0.34987 -0.541266,0.11651 -0.506015,-0.27081 -0.518939,-0.25076 -0.198437,0.30794 0.384212,0.66977 0.827991,1.26076 0.958125,1.27597 0.04737,0.006 0.05471,-0.50081 0.01632,-1.1252 z m -3.112323,0.006 c -0.261306,-0.25936 -0.291697,-0.22897 -0.148112,0.14812 0.09936,0.26093 0.247304,0.40778 0.328766,0.32632 0.08146,-0.0815 1.67e-4,-0.29496 -0.180654,-0.47444 z m -0.301466,-1.71538 c 0.0022,-0.1819 -0.115011,-0.33073 -0.260532,-0.33073 -0.145521,0 -0.26276,0.32742 -0.260532,0.72761 0.0032,0.56698 0.06067,0.63999 0.260532,0.33073 0.141064,-0.21829 0.258304,-0.54571 0.260532,-0.72761 z m 1.49049,-0.91043 c 0.107113,-0.17331 0.05387,-0.36207 -0.118326,-0.41947 -0.172192,-0.0574 -0.234407,-0.23165 -0.138256,-0.38722 0.105848,-0.17127 0.04924,-0.20525 -0.143491,-0.0861 -0.231833,0.14328 -0.239939,0.29116 -0.02984,0.54432 0.211753,0.25514 0.197578,0.38406 -0.0533,0.48472 -0.234584,0.0941 -0.242945,0.14368 -0.02666,0.15802 0.173313,0.0115 0.402752,-0.12091 0.509866,-0.29423 z m -1.064425,-0.78417 0.504028,-0.57013 -0.727604,0.46827 c -0.750242,0.48283 -0.892119,0.67198 -0.504028,0.67198 0.122967,0 0.450389,-0.25655 0.727604,-0.57012 z m -0.123255,-2.14737 c -0.430364,-0.43036 -0.676063,-0.0276 -0.259304,0.42506 0.196975,0.21395 0.400475,0.27075 0.453332,0.12655 0.05275,-0.14392 -0.03456,-0.39214 -0.194028,-0.55161 z m 3.140825,-0.045 c 0,-0.27926 -0.507766,-0.39658 -0.658791,-0.15222 -0.0914,0.14789 0.01943,0.2689 0.246301,0.2689 0.226869,0 0.41249,-0.0525 0.41249,-0.11668 z m -2.54488,-0.55852 c 0.09035,-0.23546 0.046,-0.34166 -0.103984,-0.24897 -0.381697,0.2359 -0.320593,-0.0627 0.164263,-0.80266 0.234199,-0.35743 0.561621,-0.58254 0.727605,-0.50024 0.165983,0.0823 0.112743,-0.008 -0.11831,-0.20071 -0.231054,-0.19269 -0.36996,-0.49917 -0.308681,-0.68108 0.121009,-0.35919 -0.431957,-0.44177 -0.858722,-0.12824 -0.474232,0.34842 -0.422051,0.84862 0.06932,0.6645 0.41681,-0.15618 0.422704,-0.12578 0.06297,0.32489 -0.230888,0.28926 -0.258553,0.4141 -0.06615,0.29851 0.181901,-0.10928 0.330729,-0.0726 0.330729,0.0815 0,0.15411 -0.119062,0.2802 -0.264583,0.2802 -0.145521,0 -0.264583,0.29766 -0.264583,0.66146 0,0.73485 0.3855,0.88831 0.63012,0.25084 z m 2.643361,-2.02364 c -0.454192,-0.89379 -0.461692,-1.15198 -0.02289,-0.7878 0.255116,0.21173 0.340179,0.16668 0.340179,-0.18015 0,-0.25436 -0.205372,-0.47795 -0.456382,-0.49686 -0.593947,-0.0447 -0.758972,1.01151 -0.22602,1.44664 0.354393,0.28935 0.354621,0.35534 0.002,0.59126 -0.26636,0.17823 -0.288112,0.2669 -0.06614,0.26961 0.181901,0.002 0.339097,0.21242 0.349325,0.46708 0.01578,0.39299 0.05068,0.38299 0.230773,-0.0662 0.131059,-0.32686 0.07337,-0.80231 -0.150888,-1.24363 z m -0.205507,-2.36912 c 0.125611,-0.20325 0.07152,-0.23299 -0.16164,-0.0889 -0.244352,0.15101 -0.305705,0.10003 -0.202683,-0.16844 0.100256,-0.26126 -0.04691,-0.40112 -0.45787,-0.43514 -0.349635,-0.0289 -0.675221,0.13128 -0.770296,0.37904 -0.141392,0.36846 -0.104076,0.37885 0.263855,0.0735 0.364045,-0.30213 0.466481,-0.28785 0.680662,0.0949 0.297554,0.5317 0.395468,0.55362 0.647972,0.14506 z m -2.081299,-0.11898 c -0.08792,-0.0879 -0.316122,-0.0973 -0.507118,-0.0209 -0.211067,0.0845 -0.148372,0.14715 0.159853,0.15985 0.278914,0.0115 0.435184,-0.0511 0.347265,-0.13897 z m 0.93181,-2.95915 c -0.07702,-0.20072 -0.214155,-0.26567 -0.304738,-0.14432 -0.09058,0.12134 -0.266065,0.30353 -0.389961,0.40486 -0.123896,0.10134 0.01324,0.16629 0.304738,0.14433 0.333298,-0.0251 0.478028,-0.17537 0.389961,-0.40487 z m 1.040438,-0.3779 c -0.189855,-0.18986 -0.31309,-0.20548 -0.31309,-0.0397 0,0.15037 0.07937,0.35278 0.176389,0.44979 0.09701,0.097 0.237904,0.11487 0.31309,0.0397 0.07519,-0.0752 -0.0042,-0.27759 -0.176389,-0.44979 z m -2.543149,-0.16316 c 0,-0.26679 -0.14665,-0.48507 -0.325888,-0.48507 -0.234024,0 -0.252709,0.13673 -0.06629,0.48507 0.142781,0.26678 0.28943,0.48507 0.325887,0.48507 0.03646,0 0.06629,-0.21829 0.06629,-0.48507 z m -0.358015,-1.85683 c -0.32917,-0.0767 -0.335776,-0.13211 -0.03768,-0.31635 0.198808,-0.12287 0.301939,-0.28293 0.229178,-0.35569 -0.07276,-0.0728 -0.301935,-0.0275 -0.509276,0.1007 -0.325364,0.20108 -0.325763,0.3287 -0.0029,0.93194 0.33194,0.62024 0.39354,0.64452 0.546956,0.21565 0.113411,-0.31704 0.03557,-0.51529 -0.226262,-0.57625 z m 3.193999,-0.0397 c 0.07616,-0.29124 0.03052,-0.46281 -0.101433,-0.38126 -0.13195,0.0815 -0.239909,0.31984 -0.239909,0.52953 0,0.54762 0.179784,0.46953 0.341342,-0.14827 z m -2.643567,-0.96908 c -0.126699,-0.33017 -0.075,-0.38364 0.206742,-0.21379 0.301428,0.18171 0.297241,0.12795 -0.02118,-0.27197 -0.218281,-0.27415 -0.260523,-0.41675 -0.09387,-0.31689 0.412322,0.24706 0.655388,-0.47097 0.284861,-0.8415 -0.430641,-0.43064 0.115585,-0.34829 0.719474,0.10847 0.421891,0.3191 0.437881,0.38846 0.08956,0.38846 -0.255182,0 -0.395049,0.18438 -0.351245,0.46302 0.04155,0.26432 0.258588,0.42966 0.505755,0.38528 0.238132,-0.0428 0.43479,0.0763 0.437018,0.26458 0.003,0.25054 0.06922,0.23931 0.247126,-0.0419 0.13369,-0.21134 0.184372,-0.47923 0.112625,-0.59532 -0.07175,-0.11609 -0.01825,-0.21107 0.118891,-0.21107 0.137137,0 0.32466,0.26789 0.416718,0.59531 0.153817,0.54708 0.189783,0.55737 0.443869,0.12696 0.304932,-0.51654 0.09502,-1.51602 -0.318391,-1.51602 -0.144303,0 -0.188784,0.11906 -0.09885,0.26459 0.08994,0.14552 0.02629,0.26458 -0.141447,0.26458 -0.167732,0 -0.366495,-0.23528 -0.441695,-0.52285 -0.110113,-0.42107 -0.234045,-0.47076 -0.636688,-0.25527 -0.338928,0.18139 -0.499961,0.18031 -0.499961,-0.003 0,-0.14901 -0.297656,-0.24629 -0.661459,-0.21618 -0.363802,0.0301 -0.663281,0.1776 -0.665509,0.32776 -0.0022,0.15016 -0.120677,0.0944 -0.263218,-0.12385 -0.186439,-0.2855 -0.247625,-0.0472 -0.218037,0.84925 0.02262,0.68536 0.132843,1.18944 0.244936,1.12016 0.112093,-0.0693 0.278591,-0.005 0.369994,0.14294 0.262102,0.42409 0.400081,0.31358 0.213984,-0.17138 z m -0.547617,-1.19665 c 0.131836,-0.39551 0.733176,-0.61328 0.733176,-0.26551 0,0.14208 -0.188543,0.33067 -0.418984,0.4191 -0.257681,0.0989 -0.378641,0.0397 -0.314192,-0.15359 z m -0.325157,-3.39624 c 0,-0.11493 -0.238125,-0.14669 -0.529167,-0.0706 -0.291042,0.0761 -0.529167,0.23241 -0.529167,0.34734 0,0.11492 0.238125,0.14668 0.529167,0.0706 0.291042,-0.0761 0.529167,-0.23241 0.529167,-0.34733 z m 4.762499,0.13838 c -0.181157,-0.21828 -0.523157,-0.39266 -0.760001,-0.3875 -0.296305,0.006 -0.224303,0.12732 0.230835,0.3875 0.849093,0.48538 0.932,0.48538 0.529166,0 z m -1.504511,-2.94349 c -0.07678,-0.20009 -0.0078,-0.3638 0.153287,-0.3638 0.16109,0 0.292891,-0.12609 0.292891,-0.2802 0,-0.15411 -0.119062,-0.20662 -0.264583,-0.11668 -0.145521,0.0899 -0.264584,-0.0306 -0.264584,-0.26787 0,-0.23726 -0.200121,-0.63124 -0.444714,-0.87551 -0.41641,-0.41585 -0.43482,-0.40621 -0.289258,0.15156 0.0855,0.32762 0.05094,0.53108 -0.07681,0.45213 -0.127743,-0.0789 -0.21697,0.26319 -0.198281,0.76031 0.02829,0.75251 0.134251,0.90386 0.632815,0.90386 0.399402,0 0.552343,-0.12116 0.459232,-0.3638 z M 84.36821,104.0778 c 0,-0.12126 -0.173357,-0.22048 -0.385237,-0.22048 -0.21188,0 -0.323915,0.0992 -0.248968,0.22048 0.07495,0.12127 0.248304,0.22049 0.385236,0.22049 0.136933,0 0.248969,-0.0992 0.248969,-0.22049 z m -0.613226,-0.65372 c 0.172049,0.0619 0.44053,-0.12602 0.596626,-0.41769 0.248488,-0.4643 0.211975,-0.51647 -0.29337,-0.41915 -0.317449,0.0611 -0.658774,0.24317 -0.758499,0.40453 -0.09972,0.16136 -0.284093,0.27428 -0.409706,0.25094 -0.125613,-0.0233 -0.274906,0.0971 -0.331761,0.26768 -0.0737,0.22111 0.03831,0.23707 0.390261,0.0556 0.271498,-0.13998 0.6344,-0.20384 0.806449,-0.1419 z m -1.045932,-2.72523 c -0.08792,-0.0879 -0.316122,-0.0973 -0.507118,-0.0209 -0.211067,0.0845 -0.148372,0.14715 0.159852,0.15985 0.278915,0.0115 0.435185,-0.051 0.347266,-0.13897 z m 1.129991,-0.36577 c 0,-0.15549 0.607568,-0.21122 1.502606,-0.13781 1.00922,0.0828 1.415076,0.0357 1.236032,-0.14334 -0.252288,-0.252291 -1.412367,-0.38116 -2.628395,-0.291981 -0.50938,0.03736 -0.825298,0.834171 -0.330729,0.834171 0.121267,0 0.220486,-0.11747 0.220486,-0.26104 z m 1.934941,-8.000566 c 0.03947,-1.167638 -0.03056,-1.450602 -0.347441,-1.403824 -0.218281,0.03222 -0.398698,0.166299 -0.400926,0.297947 -0.0022,0.131648 -0.09855,0.388189 -0.214053,0.57009 -0.1155,0.181901 -0.148488,0.430259 -0.07331,0.551906 0.07518,0.121648 0.16615,0.658533 0.20215,1.193079 0.104165,1.546714 0.773225,0.576167 0.833576,-1.209198 z m 0.990372,-2.042098 c 0.383941,0.606832 0.288049,0.143156 -0.153399,-0.741749 -0.528,-1.0584 -1.448997,-0.916834 -1.448997,0.222725 0,0.717303 0.03587,0.740877 0.680406,0.447206 0.550845,-0.250982 0.726408,-0.237307 0.92199,0.07182 z m -2.044285,-0.654605 c 0.07914,-0.206238 -0.01371,-0.435455 -0.206329,-0.509371 -0.239095,-0.09175 -0.307956,0.02723 -0.217018,0.374978 0.158979,0.607937 0.232656,0.631326 0.423347,0.134393 z m -0.21957,-2.270855 c 0.08994,-0.145521 0.02751,-0.264583 -0.138725,-0.264583 -0.166236,0 -0.255135,-0.141334 -0.197555,-0.314076 0.07322,-0.219646 1.332745,-0.33759 4.189236,-0.392284 2.246499,-0.04301 4.473287,-0.124396 4.948418,-0.180848 0.707771,-0.08409 0.80949,-0.03711 0.562915,0.259992 -0.241575,0.291081 -0.167134,0.362632 0.377283,0.362632 0.373032,0 0.751825,-0.119062 0.841762,-0.264583 0.08994,-0.145521 -0.02913,-0.264583 -0.264584,-0.264583 -0.235457,0 -0.354263,-0.119478 -0.264013,-0.265506 0.09025,-0.146028 0.523059,-0.202264 0.961796,-0.12497 0.509595,0.08978 0.737011,0.04233 0.629659,-0.131369 -0.162973,-0.263695 0.177276,-0.37971 0.855371,-0.291655 0.181901,0.02362 0.330729,-0.08133 0.330729,-0.233235 0,-0.1519 0.0893,-0.257636 0.198437,-0.234969 0.287375,0.05968 2.82955,-1.136631 2.92403,-1.37601 0.0439,-0.111142 0.38235,-0.540889 0.75219,-0.954994 0.70441,-0.788719 2.21019,-3.689623 2.21055,-4.258646 1.2e-4,-0.181901 0.10142,-0.330729 0.22512,-0.330729 0.27604,0 0.12622,-2.80748 -0.25075,-4.699 -0.15255,-0.765439 -0.56633,-1.735127 -0.91951,-2.154861 -0.35318,-0.419734 -0.64215,-0.903298 -0.64215,-1.074586 0,-0.412876 -0.68623,-1.086716 -0.89454,-0.878399 -0.0901,0.09008 -0.16379,0.02488 -0.16379,-0.14489 0,-0.169775 -0.16402,-0.308681 -0.36448,-0.308681 -0.20047,0 -0.517197,-0.184012 -0.70385,-0.408916 -0.186654,-0.224904 -0.491196,-0.350655 -0.676761,-0.279447 -0.185565,0.07121 -0.374849,0.01947 -0.420631,-0.114982 -0.175218,-0.514564 -4.314873,-1.528006 -5.634124,-1.379308 -0.92099,0.103809 -1.223173,0.05944 -1.087727,-0.159719 0.103152,-0.166904 0.06146,-0.303461 -0.09265,-0.303461 -0.154109,0 -0.280198,0.119062 -0.280198,0.264583 0,0.372818 -0.99211,0.330962 -1.118156,-0.04717 -0.07363,-0.220903 -0.754746,-0.108558 -2.337152,0.385496 -3.697374,1.154384 -3.997441,1.164414 -6.082596,0.203303 -1.567214,-0.722375 -2.153855,-0.849599 -4.019904,-0.871788 -2.920434,-0.03473 -4.961926,0.420017 -7.059511,1.57251 -3.625288,1.99187 -4.665947,3.406043 -5.093052,6.92105 -0.27246,2.242303 -0.313208,4.169788 -0.0956,4.521892 0.07816,0.12647 -0.09618,0.167631 -0.387419,0.09147 -0.525112,-0.13732 -0.712546,0.1812 -0.331094,0.562652 0.109141,0.10914 0.198438,0.297603 0.198438,0.418805 0,0.421309 1.208681,1.852202 1.564562,1.852202 0.196952,0 0.420366,0.238125 0.496475,0.529166 0.07611,0.291042 0.328121,0.529167 0.560026,0.529167 0.506321,0 0.541222,-0.296829 0.09092,-0.77322 -0.271767,-0.28751 -0.23639,-0.3004 0.198437,-0.0723 0.291042,0.15267 0.767292,0.459553 1.058333,0.681962 0.511214,0.39066 0.505056,0.400222 -0.18152,0.281863 -0.390878,-0.06738 -0.784858,-0.0025 -0.875511,0.144175 -0.140216,0.226875 0.06431,0.293473 0.799742,0.260416 0.07677,-0.0035 0.404194,0.289985 0.727604,0.65208 0.325109,0.363996 0.942914,0.692122 1.381769,0.733878 0.436562,0.04154 0.869508,0.179708 0.962102,0.307043 0.212994,0.292912 1.600452,0.458713 1.421972,0.169926 -0.260519,-0.421527 0.628848,-0.490912 1.794773,-0.14002 1.393384,0.419347 6.411536,1.193784 7.735412,1.193784 0.998217,0 1.295891,0.512427 0.32272,0.55554 -0.571121,0.0253 -0.568433,0.03498 0.06615,0.23821 0.928902,0.297487 1.006769,0.297487 1.190625,0 z m -11.906249,-2.38125 c -0.08994,-0.145521 0.02913,-0.264583 0.264583,-0.264583 0.235458,0 0.35452,0.119062 0.264583,0.264583 -0.08994,0.145521 -0.208999,0.264583 -0.264583,0.264583 -0.05558,0 -0.174646,-0.119062 -0.264583,-0.264583 z M 70.665591,84.030979 C 70.477953,83.827375 70.44116,83.66079 70.58383,83.66079 c 0.274754,0 0.672499,0.503293 0.515562,0.652375 -0.05095,0.0484 -0.246163,-0.07858 -0.433801,-0.282186 z m 10.527619,3.069394 c 0,-0.145521 -0.185621,-0.264584 -0.41249,-0.264584 -0.226869,0 -0.338905,0.119063 -0.248968,0.264584 0.08994,0.145521 0.275557,0.264583 0.412489,0.264583 0.136933,0 0.248969,-0.119062 0.248969,-0.264583 z M 80.063219,86.94052 c -0.08792,-0.08792 -0.316122,-0.09732 -0.507118,-0.02089 -0.211067,0.08446 -0.148373,0.147157 0.159852,0.159853 0.278915,0.01149 0.435184,-0.05105 0.347266,-0.138965 z m 7.193359,0.06501 c -0.06063,-0.05216 -0.586493,-0.167852 -1.168577,-0.257085 -0.720717,-0.110486 -0.931727,-0.08152 -0.661458,0.09079 0.361497,0.230477 2.086885,0.387262 1.830035,0.166294 z m 1.811071,-0.08695 c -0.252965,-0.06622 -0.729215,-0.06863 -1.058334,-0.0053 -0.329118,0.06329 -0.122147,0.11747 0.459936,0.120406 0.582084,0.0029 0.851362,-0.04884 0.598398,-0.115066 z m 1.251813,-0.07976 c 0.09269,-0.149982 -0.01351,-0.194338 -0.248969,-0.103984 -0.458369,0.175892 -0.542233,0.365537 -0.161648,0.365537 0.136932,0 0.32171,-0.117699 0.410617,-0.261553 z M 76.717893,86.109044 c -0.487265,-0.198825 -1.04506,-0.300438 -1.239545,-0.225808 -0.194484,0.07463 -0.423979,0.02183 -0.509988,-0.117335 -0.08601,-0.139166 -0.294908,-0.253028 -0.46422,-0.253028 -0.472227,0 0.745846,0.778392 1.366229,0.873069 0.300687,0.04589 0.620944,0.157673 0.711682,0.24841 0.09074,0.09074 0.357757,0.091 0.593378,5.84e-4 0.32391,-0.124296 0.212314,-0.252565 -0.457536,-0.525892 z m 22.889076,-0.963356 c 0.0775,-0.201952 0.490481,-0.4371 0.917741,-0.522552 0.71796,-0.143593 1.12062,-0.697763 0.50699,-0.697763 -0.31279,0 -2.375991,1.26652 -2.375991,1.458527 0,0.302491 0.822844,0.09644 0.95126,-0.238212 z m 2.344731,-1.767764 c -0.0837,-0.135466 -0.0261,-0.246301 0.12798,-0.246301 0.15411,0 0.2802,-0.142875 0.2802,-0.3175 0,-0.245444 -0.0714,-0.246052 -0.31483,-0.0027 -0.37938,0.379385 -0.53431,1.179385 -0.1868,0.964614 0.13512,-0.08351 0.17717,-0.262669 0.0935,-0.398135 z m 1.41113,-1.402484 c 0.29175,-0.494486 0.43682,-1.035982 0.32571,-1.215766 -0.13247,-0.21434 -0.25965,-0.08788 -0.37539,0.373254 -0.0963,0.383581 -0.29061,0.625993 -0.43186,0.538693 -0.14126,-0.0873 -0.25683,0.145955 -0.25683,0.518345 0,0.886311 0.10724,0.855152 0.73837,-0.214526 z m 1.68467,-3.545291 c 0.29641,-0.833929 0.57116,-1.964008 0.61056,-2.511287 0.0633,-0.879694 0.0306,-0.941041 -0.28194,-0.529166 -0.19447,0.256237 -0.35737,0.636026 -0.362,0.843975 -0.01,0.44574 -0.48007,1.950199 -0.94945,3.038195 -0.38339,0.888669 -0.20879,1.840797 0.20272,1.105473 0.13265,-0.237025 0.4837,-1.11326 0.78011,-1.94719 z M 65.31821,78.080621 c 0,-0.287021 -0.165436,-0.58534 -0.367636,-0.662931 -0.212551,-0.08156 -0.311146,-0.357094 -0.233725,-0.653155 0.07365,-0.281643 9.63e-4,-0.512079 -0.16153,-0.512079 -0.430113,0 -0.361987,1.483158 0.08883,1.933978 0.211351,0.211352 0.300648,0.47707 0.198437,0.590485 -0.102211,0.113415 -0.03701,0.120563 0.144891,0.01588 0.181901,-0.104679 0.330729,-0.425161 0.330729,-0.712181 z M 105.8776,73.5317 c -0.0661,-0.113968 -0.17077,-0.649749 -0.23255,-1.190625 -0.10726,-0.939031 -0.89487,-3.065035 -1.07044,-2.88946 -0.0461,0.04605 0.0458,0.552894 0.20415,1.126329 0.31914,1.155825 0.41433,1.609865 0.66267,3.160971 0.13537,0.845488 0.20836,0.951911 0.36292,0.529166 0.10641,-0.291041 0.13938,-0.622413 0.0733,-0.736381 z M 64.656752,71.225373 c 0.08994,-0.145521 0.03743,-0.264583 -0.116677,-0.264583 -0.154109,0 -0.280198,0.119062 -0.280198,0.264583 0,0.145521 0.0525,0.264583 0.116677,0.264583 0.06417,0 0.190261,-0.119062 0.280198,-0.264583 z m 0.595312,-1.212674 c -0.08489,-0.08489 0.0441,-0.374009 0.286632,-0.642494 1.110461,-1.229274 1.218505,-1.413432 0.89292,-1.521961 -0.175811,-0.0586 -0.319656,-0.230271 -0.319656,-0.381483 0,-0.177846 0.127752,-0.168907 0.361771,0.02531 0.39689,0.32939 0.583866,0.166474 1.181194,-1.029199 0.181747,-0.363802 0.712602,-0.907531 1.179679,-1.208287 1.062191,-0.683956 4.26398,-1.966713 4.908959,-1.966713 0.265257,0 0.557928,-0.07564 0.65038,-0.168094 0.09245,-0.09245 0.588545,-0.211514 1.10243,-0.264583 0.513886,-0.05307 1.376088,-0.141821 1.916006,-0.197226 0.539918,-0.05541 1.023835,-0.227233 1.07537,-0.381839 0.101951,-0.305852 -2.358061,-0.218822 -2.876799,0.101776 -0.161255,0.09966 -0.79688,0.220889 -1.412501,0.269396 -0.615621,0.04851 -1.942785,0.402322 -2.949254,0.786256 -1.006469,0.383934 -2.157365,0.759857 -2.557547,0.835384 -0.441397,0.08331 -0.727608,0.307643 -0.727612,0.570314 -5e-6,0.238145 -0.417941,0.76646 -0.928748,1.174034 -1.088188,0.868267 -1.638118,1.64781 -1.810363,2.566249 -0.06823,0.363802 -0.206952,0.869817 -0.308274,1.124479 -0.117388,0.295041 -0.06197,0.463021 0.152766,0.463021 0.185343,0 0.267535,-0.06945 0.182647,-0.154341 z m 4.086039,-2.715541 c 0.190153,-0.268747 0.821982,-0.644852 1.404065,-0.835789 0.582084,-0.190937 1.44756,-0.565608 1.92328,-0.832602 0.47572,-0.266994 0.95197,-0.459192 1.058333,-0.427106 0.296619,0.08948 2.704812,-0.96168 2.705937,-1.181122 0.0023,-0.449574 -5.348927,0.639772 -5.511161,1.121902 -0.04851,0.144154 -0.238347,0.262099 -0.421867,0.262099 -0.183521,0 -0.679614,0.297511 -1.102431,0.661135 -0.422816,0.363624 -0.906439,0.661281 -1.074716,0.661458 -0.175653,1.86e-4 -0.247024,0.225692 -0.167579,0.52949 0.173277,0.662613 0.732466,0.681722 1.186139,0.04053 z m 14.393652,-0.43741 c -0.750272,-0.695329 -1.338563,-0.840121 -1.612503,-0.396875 -0.08994,0.145521 0.06705,0.264583 0.348863,0.264583 0.281811,0 0.660604,0.178594 0.841761,0.396875 0.181158,0.218282 0.510778,0.396875 0.732491,0.396875 0.278266,0 0.182066,-0.204859 -0.310612,-0.661458 z m 17.569785,0.557474 c 0,-0.05719 -0.18477,-0.17489 -0.41061,-0.261552 -0.23546,-0.09036 -0.34167,-0.046 -0.24897,0.103984 0.15538,0.251408 0.65958,0.371858 0.65958,0.157568 z m -5.291664,-1.474037 c 0,-0.109169 0.386953,-0.17635 0.859896,-0.149292 1.365795,0.07814 1.447584,-0.180996 0.177028,-0.560892 -1.38965,-0.415505 -2.889007,-0.463794 -2.889007,-0.09305 0,0.145521 0.191332,0.264584 0.425182,0.264584 0.260733,0 0.368816,0.14689 0.279447,0.379781 -0.08015,0.208879 -0.0036,0.429465 0.17013,0.490191 0.389657,0.136205 0.977324,-0.06302 0.977324,-0.331327 z m -1.659158,0.09525 c -0.08792,-0.08792 -0.316122,-0.09732 -0.507118,-0.02089 -0.211067,0.08446 -0.148372,0.147157 0.159853,0.159853 0.278915,0.01149 0.435184,-0.05105 0.347265,-0.138965 z m 7.083112,-0.898481 c -0.41825,-0.436562 -0.96928,-0.79375 -1.22451,-0.79375 -0.255225,0 -0.538684,-0.120763 -0.629906,-0.268364 -0.194184,-0.314197 -2.09923,-1.319136 -2.500664,-1.319136 -0.151318,0 -0.275124,0.131801 -0.275124,0.292891 0,0.16109 0.17537,0.225595 0.389711,0.143345 0.214341,-0.08225 0.744908,0.149333 1.179038,0.514629 0.43413,0.365297 0.883838,0.672243 0.999352,0.682103 0.54252,0.04631 1.314593,0.474298 1.772383,0.982501 0.27722,0.307742 0.62692,0.559531 0.77711,0.559531 0.15019,0 -0.0691,-0.357187 -0.48739,-0.79375 z M 79.208835,64.61079 c 0.09502,-0.15374 -0.147841,-0.256793 -0.579698,-0.245987 -0.653738,0.01636 -0.679509,0.04597 -0.214052,0.245987 0.291042,0.125065 0.551905,0.235759 0.579698,0.245987 0.02779,0.01023 0.124115,-0.100466 0.214052,-0.245987 z m 10.186458,-0.25628 c 0,-0.140953 -0.178594,-0.187746 -0.396875,-0.103984 -0.218281,0.08376 -0.396875,0.199088 -0.396875,0.25628 0,0.05719 0.178594,0.103984 0.396875,0.103984 0.218281,0 0.396875,-0.115326 0.396875,-0.25628 z M 78.01821,63.78581 c 0,-0.145521 -0.119063,-0.190999 -0.264583,-0.101062 -0.145521,0.08994 -0.264584,0.282584 -0.264584,0.428105 0,0.145521 0.119063,0.190999 0.264584,0.101062 0.14552,-0.08994 0.264583,-0.282584 0.264583,-0.428105 z m 15.742708,0.295813 c -0.08994,-0.145521 -0.364854,-0.256215 -0.610927,-0.245987 -0.364728,0.01516 -0.349618,0.06062 0.08176,0.245987 0.708002,0.304239 0.717197,0.304239 0.529167,0 z m -0.400615,-1.749317 c 0.576585,-0.126389 0.601727,-0.175509 0.203812,-0.398193 -0.521243,-0.291702 -10.765656,-0.332275 -12.445409,-0.04929 -1.060572,0.178673 -1.077306,0.195223 -0.336236,0.33252 1.062821,0.196906 11.758048,0.294662 12.577833,0.114963 z M 79.671856,62.054311 c -0.181901,-0.0734 -0.479558,-0.0734 -0.661459,0 -0.181901,0.0734 -0.03307,0.133452 0.33073,0.133452 0.363802,0 0.51263,-0.06005 0.330729,-0.133452 z"
         id="path2" /><path
         style="fill:#1a1a1a"
         d="m 81.854668,186.07918 c -1.901117,-0.86057 -2.103402,-1.28471 -2.201216,-4.61533 -0.04765,-1.62247 0.02468,-3.84291 0.160738,-4.93431 0.253624,-2.03453 0.04977,-3.71079 -0.287745,-2.36604 -0.145172,0.57841 -0.30227,0.64625 -1.496674,0.64625 -0.891193,0 -1.334478,-0.10986 -1.334478,-0.33073 0,-0.54172 -0.567146,-0.37494 -0.72061,0.21191 -0.114691,0.43858 -0.283386,0.51156 -0.879708,0.38058 -1.020386,-0.22411 -2.524486,-0.22473 -4.444968,-0.002 -1.281516,0.14874 -1.628492,0.11306 -1.631682,-0.1678 -0.0029,-0.2591 -0.05824,-0.2715 -0.202087,-0.0453 -0.167652,0.2636 -3.071844,0.33486 -5.047931,0.12387 -0.197602,-0.0211 -0.971509,-0.66956 -1.719791,-1.44102 -0.748283,-0.77146 -1.582381,-1.48728 -1.853553,-1.59071 -0.331234,-0.12634 -0.447901,-0.36067 -0.355499,-0.71401 0.07565,-0.28928 0.01505,-0.52596 -0.134671,-0.52596 -0.18406,0 -0.185576,-0.1071 -0.0047,-0.33072 0.14714,-0.18191 0.421946,-1.02945 0.610682,-1.88343 0.544082,-2.46186 0.833663,-2.68062 3.458333,-2.61257 1.215799,0.0315 2.448669,0.0752 2.73971,0.097 0.291042,0.0219 3.118776,0.0234 6.283854,0.003 5.052458,-0.0318 5.754688,-0.0873 5.754688,-0.4542 0,-0.35409 -0.25263,-0.39243 -1.653646,-0.25098 -1.659545,0.16756 -5.901035,0.22736 -11.577595,0.16323 -2.99269,-0.0338 -3.059214,-0.0479 -3.888255,-0.82269 -0.46391,-0.43356 -0.966723,-0.78829 -1.117364,-0.78829 -0.477453,0 -0.624798,-1.29542 -0.48436,-4.25836 0.12145,-2.56233 0.204872,-2.9488 0.763678,-3.53786 0.867686,-0.91467 1.17975,-0.83828 0.496328,0.1215 -0.310153,0.43557 -0.489828,0.91182 -0.399277,1.05833 0.09055,0.14651 0.02397,0.26639 -0.147958,0.26639 -0.237861,0 -0.239137,0.0885 -0.0053,0.37022 0.168991,0.20362 0.356432,1.0794 0.416536,1.94617 0.13637,1.96661 0.191989,2.2201 0.578873,2.63825 0.484649,0.52381 1.057461,0.40229 1.841072,-0.39058 0.39551,-0.40018 0.569922,-0.52597 0.387582,-0.27952 -0.285892,0.38641 -0.253298,0.44219 0.236794,0.40527 0.312576,-0.0235 0.763966,-0.37401 1.003088,-0.77881 0.239122,-0.4048 0.528159,-0.736 0.642305,-0.736 0.114145,0 0.207537,-0.12609 0.207537,-0.2802 0,-0.15411 -0.132374,-0.19839 -0.294165,-0.0984 -0.27436,0.16956 -0.750975,-0.29813 -0.760117,-0.74589 -0.0092,-0.45129 1.713775,-0.16824 2.294,0.37685 0.440752,0.41406 0.61462,0.46968 0.620411,0.19844 0.0058,-0.27008 0.08534,-0.24409 0.280848,0.0917 0.454433,0.78058 0.507013,1.51578 0.108404,1.51578 -0.201337,0 -0.439875,0.11942 -0.530083,0.26538 -0.187739,0.30377 0.613445,0.22893 1.153319,-0.10773 0.272468,-0.16991 0.318574,-0.0963 0.191158,0.30514 -0.143703,0.45277 0.0086,0.57351 1.056415,0.83735 0.844279,0.21259 1.326348,0.22362 1.552977,0.0355 0.180755,-0.15002 0.406988,-0.19441 0.502739,-0.0987 0.09575,0.0957 0.174094,-0.13638 0.174094,-0.51585 0,-0.37947 -0.112839,-0.75968 -0.250753,-0.84491 -0.137914,-0.0852 -0.203669,0.0895 -0.146122,0.38833 0.05755,0.29881 -0.0082,0.47356 -0.146123,0.38832 -0.137914,-0.0852 -0.250752,-0.31662 -0.250752,-0.51418 0,-0.19757 -0.140143,-0.40593 -0.311428,-0.46302 -0.175052,-0.0583 -0.222255,-0.2481 -0.107792,-0.4333 0.159322,-0.25779 0.33449,-0.24376 0.80494,0.0645 0.360539,0.23624 0.697561,0.29774 0.841702,0.1536 0.302661,-0.30267 2.212161,-0.0107 2.212161,0.33822 0,0.14226 -0.26888,0.19116 -0.597511,0.10868 -0.86283,-0.21655 -1.227774,0.1135 -1.065294,0.96346 0.135188,0.70719 0.197243,0.73411 1.52326,0.66079 1.195219,-0.0661 1.377349,-0.14807 1.345531,-0.60561 -0.02024,-0.29104 -0.158381,-0.50687 -0.306979,-0.47963 -0.151084,0.0277 -0.261819,-0.43881 -0.251212,-1.05833 0.01179,-0.68862 -0.132226,-1.22984 -0.38056,-1.43018 -0.352973,-0.28476 -0.348874,-0.3233 0.03519,-0.33073 0.239092,-0.005 0.503246,-0.18701 0.587008,-0.40529 0.202982,-0.52897 0.864204,-0.5059 1.072694,0.0374 0.140378,0.36582 0.102114,0.38073 -0.242669,0.0946 -0.22513,-0.18684 -0.485824,-0.26321 -0.579321,-0.16972 -0.0935,0.0935 -0.03109,0.17 0.138685,0.17 0.169775,0 0.308681,0.19317 0.308681,0.42927 0,0.35158 -0.07183,0.36966 -0.396875,0.0999 -0.436997,-0.36268 -0.479994,-0.14769 -0.132292,0.66145 0.125065,0.29105 0.235759,0.38034 0.245987,0.19844 0.03022,-0.53738 0.849757,-0.37711 0.999489,0.19546 0.07568,0.28941 0.240668,0.4625 0.366637,0.38464 0.125969,-0.0779 0.482403,-0.006 0.792075,0.15978 0.420369,0.22498 0.639218,0.22515 0.863672,7e-4 0.380066,-0.38007 0.416592,-5.30121 0.03943,-5.31269 -0.145521,-0.004 -0.05622,-0.1294 0.198437,-0.27773 0.402814,-0.23462 0.463021,-0.71009 0.463021,-3.65664 0,-1.86282 -0.131577,-3.76439 -0.292393,-4.22571 -0.215012,-0.61678 -0.213507,-0.93381 0.0057,-1.19792 0.210616,-0.25378 0.218776,-0.56775 0.02781,-1.07003 -0.425355,-1.11877 -0.322221,-2.30181 0.391188,-4.48728 0.363802,-1.11448 0.661458,-2.3701 0.661458,-2.79026 0,-0.98282 0.25405,-1.6387 0.561207,-1.44887 0.132646,0.082 0.169151,0.26559 0.08112,0.40802 -0.08803,0.14244 -0.09151,0.43759 -0.0077,0.6559 0.125196,0.32625 0.264472,0.28867 0.782318,-0.21111 0.346503,-0.33442 0.579142,-0.69733 0.516977,-0.80647 -0.06217,-0.10914 0.02009,-0.19843 0.182784,-0.19843 0.162697,0 0.229939,-0.10659 0.149426,-0.23686 -0.08051,-0.13028 0.04478,-0.31022 0.278427,-0.39988 0.30244,-0.11606 0.380963,-0.0487 0.272586,0.23369 -0.08842,0.23041 -0.01759,0.3703 0.168978,0.33373 0.176665,-0.0346 0.295207,0.0746 0.263428,0.24266 -0.03178,0.16809 0.117049,0.37272 0.330729,0.45471 0.430493,0.1652 0.442843,0.11893 0.520801,-1.95097 0.0837,-2.22228 0.104666,-2.32726 0.369959,-1.85208 0.121868,0.21828 0.122884,1.28455 0.0023,2.3695 -0.120625,1.08495 -0.181465,2.01049 -0.1352,2.05675 0.255862,0.25586 0.963072,-0.31579 0.827559,-0.66893 -0.08605,-0.22425 -0.0036,-0.50472 0.183231,-0.62327 0.260275,-0.16514 0.244864,-0.21648 -0.06592,-0.21959 -0.253557,-0.003 -0.395624,-0.23223 -0.378967,-0.61272 0.0316,-0.72177 0.346464,-1.30013 0.616839,-1.13303 0.105913,0.0655 0.172446,-1.62924 0.147849,-3.76599 -0.0246,-2.13676 0.05456,-4.14869 0.175913,-4.47096 0.133369,-0.3542 0.114903,-0.65129 -0.04669,-0.75116 -0.179829,-0.11114 -0.179326,-0.27124 0.0015,-0.48917 0.147871,-0.17817 0.242949,-1.35835 0.211286,-2.62263 -0.03166,-1.26427 0.04561,-2.29852 0.171725,-2.29832 0.126113,1.9e-4 0.147429,-0.26754 0.04737,-0.59496 -0.515078,-1.68546 -0.694208,-3.81438 -0.38652,-4.5937 0.165927,-0.42026 0.33179,-1.2999 0.368585,-1.95474 0.03679,-0.65484 0.149479,-1.67624 0.25041,-2.26976 0.139505,-0.82036 0.0846,-1.16123 -0.22896,-1.42146 -0.226859,-0.18828 -0.412471,-0.51908 -0.412471,-0.73511 0,-0.24044 -0.153931,-0.33372 -0.396875,-0.24049 -0.218281,0.0838 -0.396875,0.0469 -0.396875,-0.0819 0,-0.12882 0.148829,-0.29428 0.33073,-0.36768 0.230313,-0.0929 0.21023,-0.14649 -0.06615,-0.17639 -0.218281,-0.0236 -0.653063,-0.0718 -0.966181,-0.10704 -0.378769,-0.0427 -0.524455,0.0528 -0.435297,0.28511 0.07371,0.19207 0.258992,0.27198 0.411749,0.17757 0.166186,-0.10271 0.198724,-0.0438 0.08101,0.14666 -0.121269,0.19622 -0.314548,0.22776 -0.503901,0.0822 -0.519358,-0.39913 -2.159257,-0.23936 -2.159257,0.21037 0,0.21828 -0.09674,0.46804 -0.214978,0.55501 -0.247338,0.18193 -0.395894,4.73729 -0.154477,4.73691 0.08784,-1.4e-4 0.138928,0.41647 0.113525,0.92579 -0.0254,0.50932 0.05858,0.92604 0.186632,0.92604 0.128051,0 0.156011,0.12428 0.06213,0.27618 -0.09388,0.15189 -0.01161,0.4724 0.182822,0.71224 0.252074,0.31095 0.25861,0.37906 0.02278,0.23738 -0.418632,-0.2515 -0.432562,0.15404 -0.01948,0.56712 0.238609,0.23861 0.203712,0.43007 -0.149527,0.8204 -0.253427,0.28003 -0.360245,0.57128 -0.237373,0.64722 0.194023,0.11991 0.121131,1.36416 -0.267466,4.56556 -0.05439,0.44806 -0.186877,0.95702 -0.294424,1.13104 -0.107548,0.17401 -0.09739,0.28367 0.02256,0.24369 0.316331,-0.10544 0.38054,0.31572 0.230943,1.5148 -0.398918,3.19746 -0.407059,4.91814 -0.02757,5.82639 0.216035,0.51705 0.277962,0.86912 0.137614,0.78238 -0.257911,-0.1594 -0.36418,0.21358 -0.262311,0.92065 0.07025,0.48764 -0.549083,2.39245 -0.777889,2.39245 -0.09414,0 -0.196743,-2.32172 -0.228015,-5.15937 -0.03127,-2.83766 0.0091,-5.15938 0.08974,-5.15938 0.08063,0 0.256461,0.26789 0.390737,0.59531 0.215919,0.52651 0.238954,0.49517 0.199282,-0.2711 -0.02467,-0.47653 -0.168136,-0.81893 -0.318811,-0.76089 -0.181523,0.0699 -0.25446,-0.97679 -0.216179,-3.10233 0.257279,-14.28517 0.230754,-15.65086 -0.279421,-14.38651 -0.131122,0.32496 -0.175228,0.19176 -0.175228,-0.52916 0,-0.26495 0.622333,-0.27101 0.809956,-0.008 0.139832,0.19609 2.629627,-0.51128 2.629627,-0.7471 0,-0.15738 -1.781434,0.0848 -2.107889,0.28655 -0.150349,0.0929 -0.273361,0.0429 -0.273361,-0.11125 0,-0.15411 0.145555,-0.2802 0.323455,-0.2802 0.1779,0 0.02907,-0.20619 -0.330729,-0.45821 -0.359801,-0.25201 -0.713715,-0.43771 -0.786476,-0.41266 -0.07276,0.025 -0.213469,-0.1739 -0.312686,-0.44211 -0.220364,-0.5957 0.01282,-1.59744 0.371852,-1.59744 0.144118,0 0.191127,-0.18478 0.104464,-0.41061 -0.08666,-0.22584 -0.05341,-0.34625 0.0739,-0.26756 0.127309,0.0787 0.293393,-0.0937 0.369074,-0.38314 0.07568,-0.2894 0.02969,-0.52619 -0.102211,-0.52619 -0.131898,0 -0.241637,-0.32742 -0.243865,-0.7276 -0.0033,-0.58842 -0.05828,-0.65169 -0.287535,-0.33073 -0.218835,0.30637 -0.241258,0.24603 -0.09832,-0.26458 0.10184,-0.36381 0.184294,-0.929353 0.183233,-1.256775 -0.0011,-0.327422 0.09339,-0.595312 0.209895,-0.595312 0.116503,0 0.152991,-0.224976 0.08109,-0.499946 -0.115897,-0.44319 0.586958,-4.767226 1.222254,-7.519427 0.217256,-0.941186 0.186086,-1.025733 -0.470804,-1.277058 -0.486639,-0.186187 -0.84507,-0.181339 -1.162894,0.01573 -0.739405,0.458469 -3.290023,0.364062 -3.479143,-0.128774 -0.0873,-0.227505 -0.280576,-0.338341 -0.429498,-0.246301 -0.148922,0.09204 -0.202268,0.278179 -0.118545,0.413644 0.245101,0.396582 -2.105236,0.284072 -3.145489,-0.150574 -0.522421,-0.218281 -1.310867,-0.396875 -1.752104,-0.396875 -0.441236,0 -0.802248,-0.105549 -0.802248,-0.234553 0,-0.220761 -0.875313,-0.466007 -2.38125,-0.667182 -0.363802,-0.0486 -0.753702,-0.103716 -0.866444,-0.12248 -0.112743,-0.01877 -0.323224,-0.345106 -0.467736,-0.725202 -0.19428,-0.510994 -0.399334,-0.655366 -0.786882,-0.55402 -0.374905,0.09804 -0.693717,-0.100048 -1.119764,-0.695747 -1.129595,-1.579396 -2.317559,-3.684245 -2.430316,-4.306064 -0.06219,-0.342938 -0.168818,-0.714783 -0.236959,-0.826324 -0.06814,-0.111542 -0.193533,-1.293918 -0.27865,-2.627503 -0.116803,-1.83004 -0.02281,-3.157497 0.383267,-5.412638 0.295914,-1.643365 0.635674,-3.112093 0.755023,-3.26384 0.119349,-0.151748 0.368713,-0.752155 0.554141,-1.334238 0.424622,-1.332945 3.965154,-4.892979 3.965154,-3.986995 0,0.06273 -0.651675,0.806866 -1.448166,1.653646 -0.796491,0.846779 -1.580329,1.896787 -1.741862,2.333349 -0.161533,0.436563 -0.416539,1.022449 -0.566679,1.301971 -0.465547,0.866722 -0.694497,8.054149 -0.265243,8.326758 0.139307,0.08847 0.47444,0.875229 0.744741,1.748354 0.377301,1.218757 0.806698,1.900634 1.848627,2.935593 0.746444,0.741452 1.42337,1.515358 1.50428,1.719792 0.08989,0.227125 0.155233,0.248413 0.167997,0.05473 0.0241,-0.365641 1.316319,-0.0012 2.344249,0.661186 0.331963,0.213905 0.678196,0.314292 0.769406,0.223082 0.09121,-0.09121 0.304858,-0.05046 0.474775,0.09056 0.169916,0.141017 0.776183,0.329916 1.34726,0.419775 0.571078,0.08986 1.157385,0.255511 1.302906,0.368117 0.606318,0.469178 2.945325,0.848717 7.408333,1.202116 0.727604,0.05761 1.826043,0.153978 2.440975,0.214141 0.614932,0.06016 1.05439,0.0064 0.976573,-0.119541 -0.175731,-0.284339 -0.232536,-0.27899 4.255369,-0.400735 4.880821,-0.132403 5.216917,-0.176309 6.113989,-0.798702 1.107911,-0.768674 1.625547,-0.905177 1.791598,-0.472454 0.08021,0.209014 0.324028,0.306691 0.549544,0.220152 0.222954,-0.08555 0.323668,-0.291907 0.22381,-0.45856 -0.119092,-0.198751 -0.0437,-0.191482 0.219118,0.02113 0.836966,0.677069 4.654457,-2.541662 6.004747,-5.062919 0.30475,-0.569041 0.48768,-1.14209 0.4065,-1.273443 -0.0812,-0.131353 0.0484,-0.455441 0.28803,-0.720197 0.28462,-0.314499 0.5213,-1.309287 0.68273,-2.869622 0.21297,-2.058571 0.17417,-2.673315 -0.28107,-4.453304 -0.57781,-2.259216 -0.80216,-2.632839 -1.43512,-2.389951 -0.31101,0.119348 -0.35535,0.283663 -0.17011,0.630445 0.36171,0.67713 0.95054,3.052326 0.86078,3.472139 -0.0451,0.210828 0.0481,0.280314 0.22741,0.169516 0.19473,-0.120348 0.27471,-0.01113 0.22274,0.304177 -0.0446,0.270569 0.0123,0.640771 0.12638,0.822672 0.13159,0.209792 0.0623,0.330729 -0.18943,0.330729 -0.21828,0 -0.48183,0.137459 -0.58566,0.305464 -0.12269,0.198513 -0.0719,0.233231 0.14502,0.09916 0.2508,-0.155003 0.28415,-0.05003 0.1341,0.422141 -0.10984,0.345645 -0.22646,0.866571 -0.25916,1.157612 -0.0327,0.291042 -0.0747,0.642276 -0.0932,0.780521 -0.0187,0.139544 -0.16419,0.120936 -0.32695,-0.04183 -0.16126,-0.161253 -0.32631,-0.929206 -0.36679,-1.706563 -0.0405,-0.777357 -0.16653,-1.770564 -0.28011,-2.207127 -0.2678,-1.029289 -1.2546,-3.159904 -1.73051,-3.736356 -0.28964,-0.350833 -0.29844,-0.475533 -0.0397,-0.562602 0.18281,-0.06152 0.25371,-0.239152 0.15756,-0.394728 -0.1042,-0.168597 -0.0497,-0.205524 0.13496,-0.09141 0.17038,0.1053 0.24128,0.30229 0.15756,0.437756 -0.0837,0.135465 -0.04,0.246301 0.0971,0.246301 0.13714,0 0.31161,0.238125 0.38772,0.529166 0.18927,0.723761 0.71709,0.669719 0.71709,-0.07342 0,-1.394841 -1.62062,-2.427793 -1.93326,-1.232228 -0.1365,0.521972 -0.17934,0.527591 -0.9569,0.125497 -0.830333,-0.42938 -1.136458,-0.852282 -0.41713,-0.576252 0.21828,0.08376 0.39687,0.02895 0.39687,-0.121813 0,-0.15076 0.22811,-0.201712 0.5069,-0.113226 0.2788,0.08849 0.56553,0.06603 0.63718,-0.04991 0.16508,-0.267096 -1.01977,-1.662814 -1.41158,-1.662814 -0.16109,0 -0.20794,-0.137459 -0.10411,-0.305464 0.12046,-0.194898 0.0722,-0.233401 -0.13335,-0.106373 -0.178945,0.110596 -0.533696,0.0076 -0.798096,-0.231649 -0.261779,-0.236907 -0.838623,-0.476638 -1.281875,-0.532735 -0.443252,-0.0561 -1.064307,-0.240283 -1.380123,-0.409302 -0.315816,-0.16902 -0.735808,-0.245297 -0.933316,-0.169506 -0.197509,0.07579 -0.396565,0.02887 -0.442347,-0.104267 -0.04578,-0.133137 -0.374609,-0.286182 -0.730727,-0.340099 -0.356118,-0.05392 -0.691232,-0.229265 -0.744698,-0.389663 -0.05347,-0.160397 -0.238347,-0.237527 -0.410846,-0.171399 -0.172499,0.06613 -1.02801,0.167925 -1.901135,0.226216 -0.873125,0.05829 -2.34084,0.194014 -3.261589,0.301607 -1.451739,0.169641 -1.657093,0.260617 -1.546124,0.684962 0.136015,0.520124 -0.238592,0.696257 -0.406904,0.19132 -0.05464,-0.163911 -0.712215,-0.331035 -1.461284,-0.371389 -0.74907,-0.04035 -1.500074,-0.158738 -1.668898,-0.263077 -0.228962,-0.141506 -0.234252,-0.05386 -0.02082,0.344941 0.221234,0.413379 0.201092,0.567281 -0.0888,0.678524 -0.206214,0.07913 -0.417709,0.01556 -0.469987,-0.141279 -0.06031,-0.180935 -0.235787,-0.14442 -0.480115,0.09991 -0.211785,0.211785 -0.504126,0.416246 -0.649646,0.454359 -0.489216,0.128128 -0.489216,0.289781 0,0.289781 0.266788,0 0.406727,0.07834 0.310976,0.174094 -0.09575,0.09575 -0.0263,0.356731 0.15434,0.579955 0.272215,0.336391 0.2605,0.367473 -0.06844,0.181586 -0.218282,-0.123352 -0.553448,-0.345807 -0.744815,-0.494344 -0.780706,-0.605978 -4.469744,-0.578169 -6.928102,0.05223 -1.091406,0.279869 -2.092068,0.443517 -2.223693,0.363663 -0.131625,-0.07985 -0.164635,-0.02435 -0.07336,0.123342 0.09128,0.147693 -0.333187,0.493511 -0.943258,0.768485 -0.610071,0.274974 -1.437826,0.776376 -1.839457,1.114228 -0.40163,0.337851 -0.851737,0.539183 -1.000236,0.447405 -0.1485,-0.09178 -0.27,-0.04607 -0.27,0.10158 0,0.44998 -1.245135,2.133619 -1.436438,1.942315 -0.09847,-0.09847 -0.100467,0.0257 -0.0044,0.275927 0.103577,0.269915 0.04911,0.454956 -0.133922,0.454956 -0.169678,0 -0.234921,0.119063 -0.144984,0.264583 0.08994,0.145521 0.05197,0.264584 -0.08436,0.264584 -0.136336,0 -0.217921,0.585809 -0.1813,1.301798 0.05183,1.013432 -0.01393,1.270901 -0.296897,1.162318 -0.215325,-0.08263 -0.363481,0.03382 -0.363481,0.285701 0,0.233851 0.119062,0.425183 0.264583,0.425183 0.145521,0 0.264584,0.297656 0.264584,0.661458 0,0.363802 -0.113668,0.661458 -0.252595,0.661458 -0.429683,0 -0.609775,-1.756144 -0.426064,-4.154715 0.149249,-1.948633 0.273196,-2.391147 0.824041,-2.941992 0.356602,-0.356603 0.65213,-0.780961 0.656729,-0.943018 0.01113,-0.392217 1.303135,-1.849473 1.481556,-1.671051 0.07693,0.07693 -0.06437,0.451566 -0.313992,0.832536 -0.24962,0.380969 -0.378196,0.768331 -0.285724,0.860803 0.09247,0.09247 0.168132,0.0222 0.168132,-0.156164 0,-0.178362 0.10164,-0.261478 0.225866,-0.184702 0.124226,0.07678 0.681873,-0.266097 1.239214,-0.761939 0.557342,-0.495842 1.080781,-0.890431 1.163197,-0.876864 0.08242,0.01357 0.626098,-0.191232 1.208181,-0.455107 0.582083,-0.263875 1.266693,-0.468257 1.521354,-0.454182 0.254662,0.01408 0.463021,-0.08607 0.463021,-0.222548 0,-0.136477 0.0893,-0.232212 0.198438,-0.212744 0.440239,0.07853 1.901488,-0.377598 1.789608,-0.558622 -0.06602,-0.106819 0.659968,-0.215674 1.6133,-0.241901 1.014958,-0.02792 1.670221,0.05443 1.581054,0.198704 -0.310806,0.502896 0.666364,0.539851 1.0932,0.04134 0.328574,-0.383748 0.527954,-0.441216 0.786449,-0.226685 0.250333,0.207759 0.448794,0.202315 0.71624,-0.01965 0.203476,-0.16887 0.709491,-0.248327 1.124479,-0.176572 0.667301,0.115383 0.701474,0.09058 0.295615,-0.214542 -0.252399,-0.189754 -0.381384,-0.422532 -0.286632,-0.517284 0.09475,-0.09475 0.06314,-0.184411 -0.07026,-0.199243 -0.133394,-0.01483 -0.718785,-0.07507 -1.300868,-0.133873 -0.582083,-0.0588 -1.475052,-0.150074 -1.984375,-0.202833 -1.273433,-0.131912 -5.439999,0.371049 -6.459549,0.779755 -0.340546,0.136515 -0.447669,0.107942 -0.327044,-0.08723 0.739563,-1.196639 9.085192,-1.966771 11.779649,-1.087023 0.665464,0.217276 1.404642,0.205922 2.910417,-0.0447 3.254809,-0.541739 7.275431,-0.510852 9.422255,0.07238 1.016182,0.27607 1.927116,0.630599 2.024298,0.787843 0.09718,0.157245 0.818949,0.655153 1.603925,1.106463 2.443885,1.405075 3.119725,1.869711 3.121455,2.145982 9.2e-4,0.146896 0.21995,0.403403 0.48674,0.570015 1.01761,0.635504 0.4854,-0.501202 -0.80888,-1.727641 -1.68155,-1.593416 -3.752608,-2.749467 -6.483476,-3.619031 -2.007618,-0.639265 -2.612259,-0.704321 -6.890983,-0.741423 -6.246722,-0.05417 -12.555936,0.25975 -14.347557,0.713871 -0.800365,0.202867 -1.871927,0.446204 -2.38125,0.540748 -0.86768,0.161065 -0.891415,0.147588 -0.3766,-0.213841 1.391769,-0.9771 9.959628,-1.821091 16.780766,-1.653018 7.075978,0.174353 11.062558,1.585798 14.56333,5.156133 1.66272,1.695762 3.03664,3.788727 2.70488,4.120489 -0.0872,0.08717 -0.0351,0.158488 0.11577,0.158488 0.41308,0 0.92605,2.974391 1.02667,5.953125 0.0823,2.437971 0.022,2.832909 -0.76817,5.027083 -0.48347,1.342518 -0.99414,2.353781 -1.1707,2.318278 -0.17667,-0.03553 -0.24818,0.106362 -0.16406,0.325563 0.14401,0.375289 -0.97732,2.04856 -2.1511,3.209903 -1.32315,1.309137 -3.538101,2.364395 -5.293078,2.521753 -0.436563,0.03914 -0.953842,0.188895 -1.14951,0.332778 -0.195668,0.143884 -2.160199,0.283821 -4.365625,0.310971 -2.205426,0.02715 -4.11508,0.06275 -4.243676,0.07912 -0.227007,0.02889 -0.10428,3.303514 0.261928,6.988857 0.127482,1.28292 0.07848,1.987243 -0.170648,2.452742 -0.268496,0.501695 -0.277147,0.725355 -0.03733,0.965175 0.239816,0.23981 0.319408,0.16193 0.343458,-0.33608 0.02777,-0.5751 0.05141,-0.55869 0.209519,0.14552 0.09802,0.43657 0.06675,0.87093 -0.0695,0.96526 -0.151382,0.10482 -0.124913,0.65918 0.06807,1.42558 0.480239,1.9072 -0.04736,3.71 -0.986345,3.37035 -0.249868,-0.0904 -0.154736,0.0823 0.217782,0.39521 0.713256,0.59921 0.494477,0.61452 -1.195408,0.0837 -0.584714,-0.18367 -1.418151,-0.28169 -1.852083,-0.21781 -0.694087,0.10218 -0.666602,0.12091 0.228543,0.15579 1.013169,0.0395 2.554365,0.74579 2.554365,1.17064 0,0.12273 0.107959,0.15643 0.239908,0.0749 0.13195,-0.0816 0.174963,0.10008 0.09558,0.40362 -0.112442,0.42999 -0.19939,0.4739 -0.3936,0.19881 -0.160463,-0.2273 -0.170951,-0.0703 -0.02944,0.44065 0.256917,0.92763 0.302233,16.27187 0.04806,16.27187 -0.09448,0 -0.130365,1.66364 -0.07975,3.69696 0.05062,2.03333 -0.01567,3.76352 -0.147306,3.84488 -0.131639,0.0814 -0.147008,0.39753 -0.03415,0.7026 0.112854,0.30507 0.09667,1.2717 -0.03597,2.14805 -0.163734,1.0818 -0.148402,1.79697 0.04775,2.22748 0.158903,0.34876 0.288916,0.91765 0.288916,1.26421 0,0.34656 0.178131,0.80824 0.395848,1.02596 0.635971,0.63597 0.90652,1.59653 0.602624,2.13956 -0.196315,0.3508 -0.188993,0.43431 0.0264,0.30119 0.445067,-0.27506 0.372713,1.05183 -0.108051,1.98152 -0.335938,0.64963 -0.351991,0.96587 -0.09293,1.83055 0.21771,0.72665 0.229445,1.14862 0.0385,1.38438 -0.417539,0.51553 -0.583204,4.06919 -0.743538,15.94954 -0.08052,5.96635 -0.210508,11.62182 -0.288862,12.56771 -0.07835,0.94588 -0.162633,3.26878 -0.187288,5.162 -0.04106,3.1527 -0.09338,3.49075 -0.62214,4.01951 -0.825898,0.8259 -3.274903,1.01735 -4.709111,0.36813 z m 3.571875,-2.12248 c 0,-0.50019 -1.446745,-0.90574 -3.007421,-0.84305 -0.615741,0.0247 -0.733048,0.12766 -0.6234,0.54695 0.07428,0.28407 -0.0011,0.577 -0.167579,0.65096 -0.166453,0.074 -0.0022,0.0735 0.365036,-9.6e-4 0.367223,-0.0745 0.961918,-0.0266 1.321546,0.10645 0.658889,0.24374 2.111818,-0.073 2.111818,-0.46035 z m -1.429149,-2.06454 c 0.802734,0.1383 1.528343,0.18263 1.612465,0.0985 0.08412,-0.0841 -0.05082,-0.46394 -0.299873,-0.84404 -0.249051,-0.3801 -0.389441,-0.85625 -0.311978,-1.05812 0.07746,-0.20186 0.0288,-0.43627 -0.108138,-0.5209 -0.136938,-0.0846 -0.247285,-0.41587 -0.245214,-0.73608 0.0021,-0.32021 2.09e-4,-1.28952 -0.0041,-2.15403 -0.0049,-0.97859 0.116954,-1.65001 0.322915,-1.77897 0.453021,-0.28366 0.596068,0.49054 0.182673,0.98865 -0.178275,0.21481 -0.247637,0.46706 -0.15414,0.56056 0.0935,0.0935 0.169995,0.0311 0.169995,-0.13869 0,-0.16977 0.148828,-0.27891 0.330729,-0.24253 0.200756,0.0402 0.317101,-0.1938 0.296052,-0.59532 -0.05653,-1.07826 -0.07358,-1.10162 -0.666805,-0.91333 -0.452559,0.14363 -0.535584,0.0931 -0.405179,-0.24676 0.106886,-0.27854 0.02323,-0.42741 -0.240174,-0.42741 -0.222303,0 -0.330878,-0.11861 -0.24128,-0.26358 0.291986,-0.47245 0.373034,-1.32392 0.126019,-1.32392 -0.132598,0 -0.171973,-0.18011 -0.0875,-0.40024 0.08447,-0.22013 0.0083,-0.57535 -0.169353,-0.78936 -0.266334,-0.32092 -0.201955,-0.43512 0.367275,-0.65154 0.379619,-0.14434 0.690216,-0.45099 0.690216,-0.68146 0,-0.23047 -0.102553,-0.35566 -0.227896,-0.27819 -0.125343,0.0775 0.01788,-0.362 0.318276,-0.97658 0.300394,-0.61458 0.612169,-1.14747 0.692833,-1.1842 0.309959,-0.14115 0.02182,-6.21541 -0.314545,-6.63082 -0.261499,-0.32296 -0.262756,-0.3712 -0.0056,-0.21674 0.208123,0.12504 0.330729,0.0458 0.330729,-0.21379 0,-0.22687 0.114269,-0.41249 0.253932,-0.41249 0.139662,0 0.228959,-0.34559 0.198437,-0.76797 -0.03052,-0.42239 -0.144791,-0.71302 -0.253932,-0.64585 -0.10914,0.0672 -0.198437,0.003 -0.198437,-0.14245 0,-0.14552 0.0893,-0.31977 0.198437,-0.38721 0.109141,-0.0674 0.189132,-0.61026 0.177758,-1.20624 -0.01137,-0.59599 0.07792,-1.08361 0.198438,-1.08361 0.120514,0 0.219117,-0.42375 0.219117,-0.94166 0,-0.62115 0.0997,-0.88004 0.292929,-0.76062 0.191023,0.11806 0.238873,0.008 0.137543,-0.31511 -0.08546,-0.27289 -0.224575,-1.44866 -0.309141,-2.61282 -0.171938,-2.36696 -0.463653,-2.85173 -1.770347,-2.94195 -0.475489,-0.0328 -1.122924,-0.11979 -1.438745,-0.19326 -0.863717,-0.20092 -1.637001,0.0859 -1.824551,0.67687 -0.20407,0.64297 0.223161,1.11753 1.015302,1.12779 0.653881,0.008 0.841976,0.79694 0.192843,0.80837 -0.218281,0.004 -0.545703,0.10017 -0.727604,0.21406 -0.224542,0.14057 -0.330729,0.0321 -0.330729,-0.33773 0,-0.52024 -0.02184,-0.52393 -0.484931,-0.0818 -0.353245,0.33729 -0.426872,0.62468 -0.271132,1.05834 0.125616,0.34977 0.110072,0.59531 -0.03769,0.59531 -0.157963,0 -0.159287,0.2425 -0.0036,0.65209 0.136358,0.35865 0.152938,0.7108 0.03684,0.78255 -0.164203,0.10148 -0.198671,0.97961 -0.05533,1.40963 0.01213,0.0364 0.0019,0.0959 -0.02266,0.13229 -0.02459,0.0364 0.09957,0.33574 0.275913,0.66524 0.255387,0.47719 0.252214,0.58486 -0.01559,0.52916 -0.251247,-0.0522 -0.319926,0.39813 -0.271765,1.78216 0.03545,1.01865 0.126956,2.05043 0.203354,2.29284 0.0764,0.24242 0.015,0.51733 -0.13644,0.61093 -0.15144,0.0936 -0.271559,0.3715 -0.266931,0.61758 0.0076,0.40414 0.04375,0.40079 0.373811,-0.0346 0.35349,-0.46635 0.368635,-0.46635 0.464825,0 0.176697,0.85665 -0.115581,1.7385 -0.619919,1.87038 -0.525887,0.13753 -0.584772,0.31026 -0.331116,0.97127 0.175416,0.45713 0.897735,0.58098 0.897735,0.15394 0,-0.14553 -0.178594,-0.26459 -0.396875,-0.26459 -0.218282,0 -0.396875,-0.10853 -0.396875,-0.24117 0,-0.48053 0.887135,-0.097 1.098731,0.47499 0.121578,0.32865 0.115548,0.52402 -0.01371,0.44414 -0.12692,-0.0784 -0.294105,0.18341 -0.371523,0.5819 -0.07742,0.39848 -0.02653,0.76586 0.11308,0.81639 0.154079,0.0558 0.141603,0.22711 -0.03175,0.43599 -0.214278,0.25819 -0.128952,0.46731 0.341735,0.83755 0.345026,0.2714 0.627319,0.71604 0.627319,0.98809 0,0.44994 -0.02873,0.45535 -0.317945,0.0598 -0.282426,-0.38624 -0.355016,-0.39015 -0.649758,-0.035 -0.268591,0.32363 -0.262624,0.40058 0.03131,0.40386 0.285217,0.003 0.277976,0.0591 -0.03375,0.26054 -0.218282,0.14106 -0.261934,0.2583 -0.097,0.26053 0.164929,0.002 0.358016,0.2264 0.429084,0.49816 0.08869,0.33915 -0.0054,0.48436 -0.299871,0.46302 -0.310127,-0.0225 -0.436419,0.20977 -0.455542,0.83772 -0.01455,0.47784 0.07475,0.93136 0.198438,1.0078 0.123692,0.0764 0.223072,0.2808 0.220844,0.45411 -0.0024,0.18934 -0.106423,0.15671 -0.260532,-0.0818 -0.154109,-0.23847 -0.258097,-0.2711 -0.260532,-0.0818 -0.0022,0.17331 0.115333,0.3889 0.261248,0.47908 0.176731,0.10922 0.174688,0.33327 -0.0061,0.67111 -0.219192,0.40957 -0.193874,0.4774 0.131577,0.35251 0.221648,-0.085 0.402997,-0.38705 0.402997,-0.67111 0,-0.29853 0.119119,-0.44286 0.282279,-0.34202 0.169442,0.10472 0.248765,-0.0212 0.198437,-0.31511 -0.04611,-0.26927 0.05278,-0.46388 0.219752,-0.43248 0.187583,0.0353 0.248483,-0.16692 0.159372,-0.52916 -0.08241,-0.33498 -0.04356,-0.4929 0.09063,-0.36843 0.283619,0.26306 0.324244,3.61743 0.04171,3.44436 -0.10914,-0.0668 -0.198437,0.0998 -0.198437,0.37031 0,0.27053 -0.121302,0.61317 -0.26956,0.76142 -0.435811,0.43582 -0.64223,3.96543 -0.246219,4.21018 0.233677,0.14442 0.269747,0.095 0.120969,-0.16583 -0.16451,-0.28839 -0.137349,-0.30271 0.121274,-0.0639 0.364565,0.33658 0.124192,0.9854 -0.273913,0.73936 -0.135466,-0.0837 -0.246301,0.23581 -0.246301,0.71006 0,0.59755 0.08457,0.77771 0.275459,0.58682 0.185941,-0.18594 0.749771,-0.19374 1.734975,-0.024 z m -0.952101,-14.06147 c 0,-0.16334 -0.18562,-0.29698 -0.41249,-0.29698 -0.226869,0 -0.338905,-0.11907 -0.248968,-0.26459 0.08994,-0.14552 -0.04761,-0.26458 -0.305665,-0.26458 -0.446889,0 -0.447177,-0.022 -0.006,-0.46302 0.307378,-0.3073 0.52666,-0.36755 0.652009,-0.17914 0.103878,0.15613 0.397229,0.36076 0.65189,0.45472 0.567784,0.20948 0.590472,0.54604 0.06615,0.98119 -0.274204,0.22757 -0.396875,0.23758 -0.396875,0.0324 z m 0.835526,-3.2074 c 0,-0.3638 0.06005,-0.51263 0.133453,-0.33073 0.0734,0.1819 0.0734,0.47956 0,0.66146 -0.0734,0.1819 -0.133453,0.0331 -0.133453,-0.33073 z m 0.355099,-1.05833 c 0.08994,-0.14553 0.216026,-0.26459 0.280198,-0.26459 0.06417,0 0.116677,0.11906 0.116677,0.26459 0,0.14552 -0.126089,0.26458 -0.280198,0.26458 -0.154109,0 -0.206614,-0.11906 -0.116677,-0.26458 z m 0.926042,-3.68856 c 0,-0.13693 0.119062,-0.32255 0.264583,-0.41249 0.145521,-0.0899 0.264583,0.0221 0.264583,0.24897 0,0.22687 -0.119062,0.41249 -0.264583,0.41249 -0.145521,0 -0.264583,-0.11203 -0.264583,-0.24897 z m -1.006753,-2.79374 c 0.0054,-0.43656 0.06469,-0.58312 0.131773,-0.32569 0.06708,0.25743 0.06267,0.61462 -0.0098,0.79375 -0.07247,0.17913 -0.127361,-0.0315 -0.121969,-0.46806 z m -1.839814,-0.26396 c 0.107879,-0.11908 0.04835,-0.39915 -0.132291,-0.62238 -0.226147,-0.27946 -0.231668,-0.34783 -0.01773,-0.21954 0.181266,0.1087 0.361373,-0.008 0.432329,-0.27994 0.07754,-0.29725 0.132749,-0.20818 0.152316,0.24573 0.01688,0.39159 -0.118136,0.79764 -0.300037,0.90231 -0.181901,0.10468 -0.242466,0.0929 -0.134588,-0.0262 z m 2.672611,-0.54406 c -0.198022,-0.4196 -0.212986,-0.70386 -0.0426,-0.80916 0.430331,-0.26596 0.777411,0.29479 0.554851,0.89643 -0.204159,0.55189 -0.211186,0.55069 -0.512255,-0.0873 z m -2.666921,-1.66292 c 0.02805,-0.37243 0.131839,-0.47622 0.304027,-0.30403 0.172189,0.17219 0.157648,0.36522 -0.0426,0.56546 -0.228981,0.22898 -0.293513,0.16445 -0.261432,-0.26143 z m 0.663779,-1.21059 c -0.112857,-0.59038 -0.07011,-0.63097 0.399649,-0.37956 0.289312,0.15483 0.42064,0.3594 0.29184,0.45459 -0.128801,0.0952 -0.308643,0.26599 -0.399649,0.37956 -0.09101,0.11357 -0.222334,-0.091 -0.29184,-0.45459 z m -0.07186,-1.21326 c -0.431378,-0.18537 -0.446487,-0.23083 -0.08176,-0.24599 0.246073,-0.0102 0.52099,0.10047 0.610927,0.24599 0.18803,0.30424 0.178835,0.30424 -0.529167,0 z m 0.253705,-0.81135 c -0.09592,-0.1552 -0.117656,-0.33893 -0.0483,-0.40829 0.06936,-0.0694 0.196603,0.0576 0.282774,0.28219 0.178907,0.46622 0.02642,0.54823 -0.234472,0.1261 z m 2.656712,29.38635 c -0.08994,-0.14552 -0.305323,-0.26276 -0.478636,-0.26053 -0.18934,0.002 -0.156706,0.10642 0.08176,0.26053 0.508297,0.32849 0.599891,0.32849 0.396876,0 z m -0.132292,-1.03628 c 0,-0.27892 -0.148828,-0.55721 -0.330729,-0.61843 -0.252481,-0.085 -0.236832,-0.23104 0.06615,-0.61737 0.3669,-0.46782 0.361904,-0.47862 -0.06615,-0.14292 -0.516101,0.40476 -0.623177,1.09208 -0.17013,1.09208 0.16109,0 0.224358,0.1786 0.140596,0.39688 -0.08376,0.21828 -0.03697,0.39687 0.103984,0.39687 0.140954,0 0.256279,-0.2282 0.256279,-0.50711 z m -0.0077,-2.65755 c 0.214067,-0.13538 0.332942,-0.30242 0.264167,-0.37119 -0.06878,-0.0688 -0.355973,0.0438 -0.638219,0.2502 -0.564473,0.41275 -0.248763,0.51487 0.374052,0.12099 z M 72.98417,173.73191 c 0.177263,-0.17726 0.06883,-0.28383 -0.326923,-0.32129 -0.790153,-0.0748 -1.782787,0.16638 -1.782787,0.43316 0,0.30324 1.78949,0.20835 2.10971,-0.11187 z m 13.681447,-0.69156 c -0.08446,-0.21107 -0.147157,-0.14838 -0.159852,0.15985 -0.01149,0.27891 0.05105,0.43518 0.138964,0.34726 0.08792,-0.0879 0.09732,-0.31612 0.02089,-0.50711 z m -23.99324,-1.14349 c 0,-0.20246 0.208359,-0.4963 0.463021,-0.65297 0.40343,-0.2482 0.380596,-0.27543 -0.177414,-0.21159 -0.48085,0.055 -0.665183,0.26035 -0.739752,0.82401 -0.06289,0.47541 0.0022,0.688 0.177414,0.57969 0.152202,-0.0941 0.276731,-0.33668 0.276731,-0.53914 z m 14.684375,-0.12982 c 0.510179,-0.21923 0.508365,-0.22806 -0.05053,-0.24599 -0.318834,-0.0102 -0.653283,0.10047 -0.743219,0.24599 -0.193411,0.31294 0.06549,0.31294 0.79375,0 z m -10.843692,-0.5068 c -0.484005,-0.18904 -1.459433,-0.0949 -1.459433,0.14078 0,0.0558 0.446484,0.0931 0.992187,0.0828 0.75576,-0.0142 0.8671,-0.0674 0.467246,-0.22362 z m 13.357233,-0.40363 c 0,-0.35521 -0.105526,-0.71106 -0.234503,-0.79077 -0.264897,-0.16372 -0.606798,0.88104 -0.398577,1.21795 0.273575,0.44265 0.63308,0.20007 0.63308,-0.42718 z m -14.498978,-0.4828 c 0.162276,-0.25058 0.272094,-0.23423 0.47201,0.0703 0.143293,0.21828 0.262355,0.26867 0.264584,0.11197 0.0024,-0.1685 0.3437,-0.23505 0.835385,-0.16289 0.575889,0.0845 0.774338,0.0298 0.645843,-0.17812 -0.102019,-0.16507 -0.371636,-0.30012 -0.599147,-0.30012 -0.316052,0 -0.344124,-0.0838 -0.118972,-0.35508 0.162076,-0.19529 0.212536,-0.43722 0.112133,-0.53762 -0.100404,-0.10041 0.260799,0.003 0.802672,0.2291 l 0.985224,0.41165 -0.167601,-0.66778 c -0.161161,-0.64211 -0.120423,-0.66777 1.06001,-0.66777 0.847135,0 1.274813,0.123 1.379907,0.39687 0.217257,0.56616 0.88943,0.49174 0.88943,-0.0985 0,-0.37349 0.276623,-0.54691 1.12448,-0.70497 0.618463,-0.11529 1.332838,-0.20555 1.5875,-0.20057 0.254661,0.005 0.46302,-0.10397 0.46302,-0.24209 0,-0.13957 0.341443,-0.17615 0.768562,-0.0823 0.471444,0.10355 0.842251,0.0496 0.959175,-0.13961 0.134237,-0.2172 0.0047,-0.25765 -0.437832,-0.13675 -0.626377,0.17111 -0.626268,0.17039 0.03301,-0.21986 0.610901,-0.3616 0.470223,-0.38531 -1.840557,-0.31019 -1.613218,0.0524 -2.538748,0.19152 -2.605418,0.39153 -0.07609,0.22827 -0.196669,0.2328 -0.456507,0.0172 -0.221243,-0.18362 -1.817226,-0.29877 -4.27375,-0.30835 -2.156353,-0.008 -4.14387,-0.13178 -4.416704,-0.27415 -0.370044,-0.1931 -0.668887,-0.12982 -1.176382,0.24908 -0.820601,0.61266 -1.272435,1.9273 -0.662405,1.9273 0.309992,0 0.365902,0.226 0.253939,1.02647 -0.07897,0.56456 -0.08796,1.08209 -0.01999,1.15006 0.268042,0.26804 3.935721,-0.0818 4.138378,-0.39476 z m 10.728666,0.27496 c 0.230003,-0.18738 0.330729,-0.17424 0.330729,0.0431 0,0.17193 0.119062,0.23901 0.264583,0.14908 0.456464,-0.28211 0.288876,-1.04817 -0.311304,-1.42299 -0.503532,-0.31446 -0.619881,-0.29948 -0.926041,0.11922 -0.292255,0.39968 -0.350155,0.40998 -0.350155,0.0623 0,-0.44057 -1.248778,-0.83299 -1.381712,-0.43419 -0.04249,0.12747 -0.517843,0.24833 -1.056338,0.26858 -1.056855,0.0397 -1.459037,0.64438 -0.775634,1.16611 0.481202,0.36736 3.768043,0.40549 4.205872,0.0488 z m -5.754688,-0.58591 c 0,-0.6154 -0.50186,-0.75258 -1.396911,-0.38184 l -0.835805,0.3462 0.653337,0.18208 c 1.082406,0.30165 1.579379,0.25557 1.579379,-0.14644 z m 15.711839,-1.28249 -0.200766,-0.84979 -0.157298,0.79375 c -0.08651,0.43656 -0.07085,0.83121 0.03481,0.87699 0.105659,0.0458 0.130274,0.28391 0.0547,0.52917 -0.116583,0.37835 -0.09143,0.37423 0.165958,-0.0272 0.188264,-0.29362 0.227191,-0.79555 0.102596,-1.32292 z m -8.038922,-2.04041 c 0,-0.14553 -0.0525,-0.26459 -0.116677,-0.26459 -0.06417,0 -0.190261,0.11906 -0.280198,0.26459 -0.08994,0.14552 -0.03743,0.26458 0.116677,0.26458 0.154109,0 0.280198,-0.11906 0.280198,-0.26458 z m 1.524467,-0.79637 c -0.185852,-0.29759 -0.375815,-0.40063 -0.431366,-0.23398 -0.0546,0.16379 0.06408,0.40126 0.263713,0.52773 0.521031,0.33005 0.538311,0.29977 0.167653,-0.29375 z m 0.193471,-1.85152 c -0.531828,-0.58766 -0.918393,-0.49628 -0.423441,0.1001 0.171363,0.20648 0.293293,0.47725 0.270954,0.60171 -0.127237,0.70889 0.08317,0.96755 0.345161,0.4243 0.230591,-0.47816 0.192561,-0.70043 -0.192674,-1.12611 z m -11.441375,-0.96693 c -0.181901,-0.0734 -0.479558,-0.0734 -0.661459,0 -0.181901,0.0734 -0.03307,0.13346 0.33073,0.13346 0.363802,0 0.51263,-0.0601 0.330729,-0.13346 z m -2.85557,-1.1294 c 0.08372,-0.13547 0.03122,-0.32109 -0.116677,-0.41249 -0.147894,-0.0914 -0.268899,0.0194 -0.268899,0.2463 0,0.46475 0.158764,0.53318 0.385576,0.16619 z M 87.459367,150.0216 c -0.08446,-0.21107 -0.147157,-0.14838 -0.159852,0.15985 -0.01149,0.27891 0.05105,0.43518 0.138964,0.34726 0.08792,-0.0879 0.09732,-0.31612 0.02089,-0.50711 z m -4.414074,0.006 c 0,-0.12127 -0.112036,-0.22049 -0.248968,-0.22049 -0.136933,0 -0.310289,0.0992 -0.385237,0.22049 -0.07495,0.12127 0.03709,0.22048 0.248969,0.22048 0.21188,0 0.385236,-0.0992 0.385236,-0.22048 z M 81.3444,147.16079 c 0.207887,0 0.377977,-0.1318 0.377977,-0.29289 0,-0.1649 -0.193093,-0.2188 -0.441868,-0.12333 -0.24317,0.0933 -0.540612,0.0168 -0.661458,-0.17013 -0.304199,-0.47058 -0.731368,0.19882 -0.555657,0.87074 0.112598,0.43057 0.175499,0.44314 0.515636,0.103 0.213067,-0.21306 0.557483,-0.38739 0.76537,-0.38739 z m 6.727976,0.41851 c 0,-0.42249 -0.382258,-0.94768 -0.689765,-0.94768 -0.202713,0 -0.368568,-0.12609 -0.368568,-0.2802 0,-0.15411 -0.105572,-0.21495 -0.234604,-0.1352 -0.129032,0.0798 -0.360536,-0.007 -0.514453,-0.1922 -0.282289,-0.34014 -1.164615,-0.38588 -1.896776,-0.0983 -0.218281,0.0857 -0.813594,0.19815 -1.322917,0.24982 -0.584281,0.0593 -0.926041,0.23401 -0.926041,0.47346 0,0.21557 0.171455,0.32646 0.396875,0.25668 0.883977,-0.27362 3.61196,-0.0529 4.365624,0.35329 0.787736,0.42451 1.190625,0.53292 1.190625,0.32036 z m -3.545008,-4.26559 c 0.305818,-0.0616 0.641643,-0.0264 0.746278,0.0782 0.592025,0.59202 1.880208,-0.14173 1.626874,-0.92667 -0.206248,-0.63905 -1.659043,-1.4518 -1.855787,-1.0382 -0.107806,0.22664 -0.190036,0.21725 -0.306371,-0.035 -0.121153,-0.26267 -0.251822,-0.23117 -0.548788,0.13229 -0.214375,0.26237 -0.314385,0.32822 -0.222245,0.14631 0.09996,-0.19734 -0.0051,-0.33072 -0.260578,-0.33072 -0.243919,0 -0.350733,0.12518 -0.248269,0.29098 0.127985,0.20708 0.03516,0.21355 -0.321946,0.0224 -0.326034,-0.17449 -0.661561,-0.17913 -0.957971,-0.0132 -0.250904,0.14041 -0.456188,0.17163 -0.456188,0.0694 0,-0.10225 -0.238125,0.0886 -0.529167,0.42422 -0.291042,0.33557 -0.529167,0.83595 -0.529167,1.11195 0,0.45634 0.149881,0.48724 1.653646,0.34095 0.909505,-0.0885 1.903861,-0.21128 2.209679,-0.2729 z m -0.655493,-35.91098 c -0.261307,-0.25936 -0.291698,-0.22897 -0.148113,0.14812 0.09936,0.26093 0.247304,0.40778 0.328766,0.32632 0.08146,-0.0815 1.68e-4,-0.29496 -0.180653,-0.47444 z m 3.072803,-3.10444 c 0.392209,-0.94777 0.24961,-1.31916 -0.62841,-1.63666 -0.489349,-0.17695 -0.891548,-0.50617 -0.893776,-0.7316 -0.0036,-0.36121 -0.0345,-0.36275 -0.260532,-0.013 -0.217462,0.3365 -0.257097,0.32406 -0.260532,-0.0818 -0.0022,-0.26325 -0.123114,-0.40505 -0.268635,-0.31512 -0.145521,0.0899 -0.264583,0.0404 -0.264583,-0.11012 0,-0.48382 -1.384784,0.2164 -2.172224,1.09839 -0.830433,0.93015 -0.87224,1.02362 -0.415929,0.92996 0.184207,-0.0378 0.38619,0.33057 0.471486,0.8599 0.102755,0.63767 0.270175,0.89603 0.537633,0.82966 0.897117,-0.22263 3.569206,-0.002 3.683182,0.30392 0.06588,0.1769 0.162143,0.0835 0.213928,-0.20754 0.05179,-0.29104 0.168062,-0.70776 0.258392,-0.92604 z m -5.029376,0.10473 c -0.08792,-0.0879 -0.316122,-0.0973 -0.507118,-0.0209 -0.211067,0.0845 -0.148372,0.14716 0.159852,0.15985 0.278915,0.0115 0.435185,-0.051 0.347266,-0.13896 z m 0.733116,-3.21732 c 0.970607,-0.37224 2.808531,-0.50295 3.248519,-0.23103 0.177846,0.10992 0.323356,0.0738 0.323356,-0.0803 0,-0.15411 0.251032,-0.2802 0.55785,-0.2802 0.475737,0 0.531399,-0.1071 0.378152,-0.727602 -0.09883,-0.400182 -0.307802,-0.846666 -0.464373,-0.992187 -0.195421,-0.181628 -0.226133,-0.160889 -0.09795,0.06615 0.102698,0.181901 0.0904,0.339839 -0.02733,0.350973 -0.117729,0.01113 -0.452177,0.06562 -0.743219,0.121079 -0.291042,0.05546 -1.049676,0.12888 -1.685855,0.163156 -0.636178,0.03428 -1.291022,0.188149 -1.455208,0.341941 -0.164186,0.15379 -0.447348,0.29152 -0.629249,0.30608 -0.888372,0.0711 -0.928479,0.10126 -0.623145,0.46917 0.16585,0.19984 0.228728,0.58679 0.13973,0.85989 -0.09472,0.29067 -0.06919,0.38063 0.06158,0.21696 0.122868,-0.15379 0.580584,-0.4166 1.017146,-0.58403 z m 1.148726,-2.507595 c 0.23197,-0.23197 0.383598,-0.243731 0.515937,-0.04002 0.215358,0.331503 1.113462,0.38648 1.113462,0.06816 0,-0.1167 0.208359,-0.145156 0.463021,-0.06324 0.377491,0.121433 0.392043,0.09869 0.07878,-0.123137 -0.211333,-0.149647 -0.469054,-0.219667 -0.572714,-0.155602 -0.246058,0.152072 -0.454416,-0.455459 -0.300147,-0.875171 0.08011,-0.217958 0.284623,-0.129785 0.61368,0.264583 0.27144,0.325315 0.497488,0.466466 0.50233,0.313669 0.0048,-0.152797 -0.134073,-0.420688 -0.308698,-0.595313 -0.246944,-0.246944 -0.243474,-0.3175 0.01561,-0.3175 0.183213,0 0.255326,-0.125865 0.160251,-0.2797 -0.283483,-0.458684 -0.333736,-1.572383 -0.07095,-1.572383 0.134098,0 0.158861,-0.137459 0.05503,-0.305464 -0.117906,-0.190775 -0.07248,-0.23358 0.120993,-0.114009 0.170378,0.1053 0.249617,0.288799 0.176085,0.407776 -0.07353,0.118977 0.06644,0.378641 0.311056,0.57703 0.26272,0.213075 0.367541,0.232001 0.256106,0.04624 -0.106388,-0.177346 0.01568,-0.43342 0.27994,-0.587267 0.315547,-0.183704 0.349734,-0.275427 0.104677,-0.280845 -0.293675,-0.0065 -0.331276,-0.454856 -0.194825,-2.323149 0.237174,-3.247413 0.2371,-3.24863 -0.227274,-3.761758 -0.311163,-0.343831 -0.854125,-0.466041 -2.13088,-0.479619 -1.59687,-0.01698 -2.101657,0.199829 -1.4307,0.614504 0.155442,0.09607 0.220173,0.337407 0.143847,0.536308 -0.07632,0.198901 -0.02459,0.432209 0.11497,0.518461 0.15841,0.0979 0.144151,0.361597 -0.03795,0.701861 -0.168827,0.315456 -0.180806,0.476505 -0.02844,0.382337 0.349688,-0.216119 0.58331,0.438479 0.402819,1.128681 -0.177381,0.678305 -0.613282,0.46806 -0.613282,-0.2958 0,-0.783779 -0.189595,-0.499122 -0.349162,0.524228 -0.07387,0.473765 -0.03902,0.802498 0.07745,0.730518 0.269342,-0.166463 0.852575,0.517163 0.630596,0.739142 -0.09113,0.09113 -0.202402,0.675491 -0.247264,1.298573 -0.07042,0.978051 -0.04194,1.051517 0.208424,0.537564 0.159495,-0.327422 0.395049,-0.595313 0.523452,-0.595313 0.128403,0 0.114397,0.22247 -0.03112,0.494378 -0.145521,0.271909 -0.179663,0.5793 -0.07587,0.683091 0.103792,0.103792 0.01031,0.327806 -0.207747,0.497809 -0.512318,0.399426 -0.652772,1.23266 -0.20962,1.243553 0.206582,0.0051 0.138669,0.162455 -0.171263,0.396875 -0.282475,0.213653 -0.395584,0.388461 -0.251354,0.388461 0.14423,0 0.410069,-0.147833 0.590754,-0.328518 z m 0.801882,-0.134503 c -0.135658,-0.797221 -0.134241,-1.417517 0.0034,-1.502591 0.08944,-0.05527 0.185453,0.304851 0.213354,0.800269 0.0279,0.495418 -0.0019,0.900759 -0.06615,0.900759 -0.06428,0 -0.13207,-0.0893 -0.150642,-0.198437 z m -2.201225,-0.837298 c -0.08226,-0.133092 1.5e-5,-0.295385 0.182823,-0.360652 0.182808,-0.06527 0.245958,-0.211465 0.140334,-0.324885 -0.105624,-0.11342 -0.37915,-0.05093 -0.607836,0.13886 -0.331417,0.275051 -0.346137,0.389263 -0.07254,0.562818 0.448272,0.28436 0.540367,0.280198 0.357219,-0.01614 z m 4.456162,-0.861311 c -0.123126,-0.199222 -0.05409,-0.25689 0.193703,-0.161803 0.272722,0.104653 0.395402,-0.05586 0.420632,-0.550349 0.01959,-0.383951 -0.03253,-0.5195 -0.115823,-0.301218 -0.08329,0.218281 -0.312577,0.492088 -0.50952,0.608459 -0.425274,0.25129 -0.475762,0.714457 -0.07788,0.714457 0.154109,0 0.194108,-0.139295 0.08889,-0.309546 z M 83.137677,94.28822 c 0.337317,-0.37273 0.355175,-0.48507 0.07711,-0.48507 -0.199028,0 -0.498188,0.218282 -0.6648,0.48507 -0.166612,0.266788 -0.201313,0.485069 -0.07711,0.485069 0.1242,0 0.42336,-0.218281 0.6648,-0.485069 z m -8.029884,-6.098655 c 0,-0.128549 -0.238125,-0.295996 -0.529166,-0.372105 -0.520091,-0.136007 -0.699648,0.08257 -0.352778,0.429441 0.256681,0.25668 0.881944,0.216032 0.881944,-0.05734 z m -3.069962,-1.309678 c 0.07495,-0.121268 -0.03185,-0.220486 -0.237329,-0.220486 -0.205479,0 -0.312277,0.09922 -0.23733,0.220486 0.07495,0.121267 0.181746,0.220486 0.23733,0.220486 0.05558,0 0.162382,-0.09922 0.237329,-0.220486 z m 30.851209,-2.160764 c 0,-0.145521 -0.0525,-0.264583 -0.11667,-0.264583 -0.0642,0 -0.19027,0.119062 -0.2802,0.264583 -0.0899,0.145521 -0.0374,0.264583 0.11667,0.264583 0.15411,0 0.2802,-0.119062 0.2802,-0.264583 z m 1.05834,-1.5875 c 0,-0.145521 -0.12609,-0.264583 -0.2802,-0.264583 -0.15411,0 -0.20662,0.119062 -0.11668,0.264583 0.0899,0.145521 0.21603,0.264583 0.2802,0.264583 0.0642,0 0.11668,-0.119062 0.11668,-0.264583 z M 63.804629,79.681545 c -0.07762,-0.296813 -0.200243,-0.480542 -0.2725,-0.408286 -0.143137,0.143138 0.109694,0.947947 0.297799,0.947947 0.0637,0 0.05232,-0.242847 -0.0253,-0.539661 z m 43.183581,-0.515641 c 0.0927,-0.149982 -0.0135,-0.194339 -0.24897,-0.103985 -0.45837,0.175893 -0.54223,0.365537 -0.16165,0.365537 0.13694,0 0.32171,-0.117698 0.41062,-0.261552 z M 73.711926,162.79698 c 0.109497,-0.0869 0.260757,-0.23721 0.336132,-0.33395 0.07538,-0.0967 0.356997,-0.0151 0.625826,0.18152 0.44783,0.32746 0.419668,0.35544 -0.336132,0.33395 -0.453702,-0.0129 -0.735324,-0.0946 -0.625826,-0.18152 z m -4.067778,-2.93619 c -0.08731,-0.43656 -0.260185,-0.79375 -0.384161,-0.79375 -0.123976,0 -0.425122,-0.3048 -0.669213,-0.67733 -0.381046,-0.58155 -0.391262,-0.72985 -0.07224,-1.04876 0.259121,-0.25904 0.491653,-0.29275 0.768431,-0.1114 0.344671,0.22584 0.332486,0.30927 -0.09264,0.63429 -0.472281,0.36106 -0.379451,1.09809 0.100914,0.80121 0.129961,-0.0803 0.349121,0.24516 0.487022,0.72329 0.191591,0.66428 0.256358,0.72891 0.274592,0.27401 0.01372,-0.34217 0.192622,-0.59531 0.420737,-0.59531 0.493034,0 0.505222,-0.55476 0.03652,-1.66215 -0.33452,-0.79035 -1.413379,-1.99447 -1.651795,-1.84358 -0.252098,0.15955 -1.162847,0.0463 -1.162847,-0.14459 0,-0.26501 1.210238,-0.25494 1.47735,0.0123 0.10909,0.10914 0.453882,0.19844 0.766204,0.19844 0.312323,0 0.907982,0.35501 1.323686,0.78891 0.575193,0.60037 0.839254,0.71967 1.104921,0.49918 0.192003,-0.15934 0.288934,-0.38706 0.215402,-0.50604 -0.07353,-0.11898 -0.01866,-0.28742 0.12193,-0.37431 0.378097,-0.23368 0.81134,0.74465 0.81134,1.83212 0,0.6381 -0.143022,1.00663 -0.433995,1.11828 -0.392098,0.15046 -0.387216,0.20075 0.05057,0.52087 0.266511,0.19487 0.342747,0.35432 0.169413,0.35432 -0.173334,0 -0.315153,0.17859 -0.315153,0.39687 0,0.53439 -0.52567,0.5028 -0.934388,-0.0562 -0.293255,-0.40105 -0.385919,-0.40864 -0.807562,-0.0661 -0.261962,0.21279 -0.391966,0.24629 -0.288898,0.0744 0.103068,-0.17185 0.05308,-0.39546 -0.111084,-0.49692 -0.325902,-0.20142 -0.813837,0.38964 -0.60312,0.73059 0.07175,0.11609 0.0014,0.21107 -0.156365,0.21107 -0.157747,0 -0.35825,-0.35719 -0.445562,-0.79375 z m 8.104707,-2.64878 c -0.308752,-0.19082 -0.320797,-0.30649 -0.05916,-0.56812 0.394587,-0.39459 0.933673,0.02 0.641246,0.49316 -0.125513,0.20309 -0.331783,0.22965 -0.582083,0.075 z M 62.875553,155.4357 c 0.475549,-0.0589 1.189924,-0.0577 1.5875,0.003 0.397576,0.0604 0.0085,0.10855 -0.864634,0.10707 -0.873125,-0.001 -1.198415,-0.0509 -0.722866,-0.10977 z M 81.660969,86.644038 c 0.475549,-0.05889 1.189924,-0.05767 1.5875,0.0027 0.397576,0.06037 0.0085,0.10855 -0.864634,0.107065 -0.873125,-0.0015 -1.198415,-0.05088 -0.722866,-0.109765 z m 8.863839,-0.256186 c 0.257431,-0.06708 0.614618,-0.06267 0.79375,0.0098 0.179131,0.07248 -0.03149,0.127362 -0.468057,0.12197 -0.436562,-0.0054 -0.583124,-0.06469 -0.325693,-0.131774 z M 77.952064,86.131394 c 0.181901,-0.0734 0.479557,-0.0734 0.661458,0 0.181901,0.0734 0.03307,0.133452 -0.330729,0.133452 -0.363802,0 -0.51263,-0.06005 -0.330729,-0.133452 z m -1.5875,-0.264583 c 0.181901,-0.0734 0.479557,-0.0734 0.661458,0 0.181902,0.0734 0.03307,0.133452 -0.330729,0.133452 -0.363802,0 -0.51263,-0.06005 -0.330729,-0.133452 z m 24.514966,-2.433126 c 0.53924,-0.606236 0.6866,-0.684722 0.6866,-0.365707 0,0.110516 -0.26789,0.365507 -0.59532,0.566646 -0.59319,0.364409 -0.59352,0.363695 -0.0913,-0.200939 z m 0.88785,-0.727309 c -0.16243,-0.271617 1.38252,-3.106259 1.58346,-2.905315 0.073,0.07301 0.0737,0.286703 10e-4,0.47488 -0.0722,0.188177 -0.13628,0.447891 -0.14238,0.577142 -0.006,0.129251 -0.12301,0.307845 -0.25981,0.396875 -0.1368,0.08903 -0.42709,0.506293 -0.6451,0.927251 -0.218,0.420958 -0.45993,0.659083 -0.53762,0.529167 z m 1.91541,-3.792472 c 0,-0.136932 0.1177,-0.32171 0.26156,-0.410616 0.14998,-0.09269 0.19433,0.01351 0.10398,0.248968 -0.17589,0.458369 -0.36554,0.542234 -0.36554,0.161648 z M 97.200501,67.330446 c -1.363917,-0.394973 -2.280015,-0.945079 -1.240456,-0.744878 0.315029,0.06067 0.744269,-0.06118 0.953866,-0.270777 0.504484,-0.504485 0.954147,-0.468754 1.675653,0.133149 1.219223,1.017116 0.548113,1.443489 -1.389063,0.882506 z m 2.248958,-0.04259 c 0,-0.145521 0.119063,-0.338168 0.264584,-0.428105 0.145521,-0.08994 0.264583,-0.04446 0.264583,0.101062 0,0.145521 -0.119062,0.338168 -0.264583,0.428105 -0.145521,0.08994 -0.264584,0.04446 -0.264584,-0.101062 z m -13.229166,-0.39897 c 0,-0.210189 2.393584,-1.219763 2.891918,-1.219763 0.561839,0 0.990867,0.425279 0.469881,0.465774 -0.1755,0.01364 -0.795341,0.206853 -1.377424,0.429359 -1.00948,0.385883 -1.984375,0.545368 -1.984375,0.32463 z m -2.593401,-0.886064 c 0.163312,-0.19678 0.462633,-0.294195 0.665158,-0.216479 0.202525,0.07772 0.30057,0.03183 0.217877,-0.101968 -0.08269,-0.133799 4.21e-4,-0.330118 0.184696,-0.436264 0.184275,-0.106146 0.245488,-0.09427 0.13603,0.02639 -0.109458,0.120662 0.0039,0.443653 0.252005,0.717757 0.435428,0.481143 0.412929,0.496123 -0.650839,0.433356 -0.892123,-0.05264 -1.045339,-0.133116 -0.804927,-0.422794 z m 9.141838,0.284823 c 0.181901,-0.0734 0.479558,-0.0734 0.661459,0 0.181901,0.0734 0.03307,0.133452 -0.330729,0.133452 -0.363802,0 -0.512631,-0.06005 -0.33073,-0.133452 z M 68.757793,65.565139 c 0,-0.05719 0.184778,-0.17489 0.410617,-0.261553 0.23546,-0.09035 0.341663,-0.046 0.248969,0.103984 -0.155379,0.251408 -0.659586,0.371858 -0.659586,0.157569 z m 17.991667,0.0041 c 0,-0.05494 0.208359,-0.263301 0.463021,-0.463021 0.419643,-0.329107 0.429002,-0.319749 0.09989,0.0999 -0.345643,0.440729 -0.562915,0.580887 -0.562915,0.363126 z m -1.190625,-0.429272 c -0.08994,-0.14552 -0.03743,-0.264583 0.116677,-0.264583 0.154109,0 0.280198,0.119063 0.280198,0.264583 0,0.145521 -0.0525,0.264584 -0.116677,0.264584 -0.06417,0 -0.190261,-0.119063 -0.280198,-0.264584 z m 2.778125,-0.132291 c 0,-0.218281 0.115325,-0.396875 0.256279,-0.396875 0.140954,0 0.187747,0.178594 0.103984,0.396875 -0.08376,0.218281 -0.199088,0.396875 -0.256279,0.396875 -0.05719,0 -0.103984,-0.178594 -0.103984,-0.396875 z M 70.197426,64.734667 c 0.282474,-0.213653 0.639662,-0.384674 0.79375,-0.380046 0.154087,0.0046 0.04904,0.183222 -0.233431,0.396875 -0.282475,0.213653 -0.639663,0.384674 -0.79375,0.380046 -0.154088,-0.0046 -0.04904,-0.183222 0.233431,-0.396875 z m -1.313396,-0.90783 c 0.150657,-0.243768 1.834278,-0.805322 2.387305,-0.796261 0.145521,0.0024 -0.254434,0.239846 -0.888789,0.527691 -1.266434,0.574659 -1.740162,0.659562 -1.498516,0.26857 z"
         id="path1" /></g></g></svg>
